<?xml version="1.0" encoding="utf-8" standalone="no"?>
<!DOCTYPE svg PUBLIC "-//W3C//DTD SVG 1.1//EN"
  "http://www.w3.org/Graphics/SVG/1.1/DTD/svg11.dtd">
<svg xmlns:xlink="http://www.w3.org/1999/xlink" width="360pt" height="252pt" viewBox="0 0 360 252" xmlns="http://www.w3.org/2000/svg" version="1.1">
 <metadata>
  <rdf:RDF xmlns:dc="http://purl.org/dc/elements/1.1/" xmlns:cc="http://creativecommons.org/ns#" xmlns:rdf="http://www.w3.org/1999/02/22-rdf-syntax-ns#">
   <cc:Work>
    <dc:type rdf:resource="http://purl.org/dc/dcmitype/StillImage"/>
    <dc:date>2025-06-06T15:12:24.409562</dc:date>
    <dc:format>image/svg+xml</dc:format>
    <dc:creator>
     <cc:Agent>
      <dc:title>Matplotlib v3.10.3, https://matplotlib.org/</dc:title>
     </cc:Agent>
    </dc:creator>
   </cc:Work>
  </rdf:RDF>
 </metadata>
 <defs>
  <style type="text/css">*{stroke-linejoin: round; stroke-linecap: butt}</style>
 </defs>
 <g id="figure_1">
  <g id="patch_1">
   <path d="M 0 252 
L 360 252 
L 360 0 
L 0 0 
z
" style="fill: #ffffff; stroke: #ffffff; stroke-linejoin: miter"/>
  </g>
  <g id="axes_1">
   <g id="patch_2">
    <path d="M 35.992563 122.294156 
L 140.395042 122.294156 
L 140.395042 41.827417 
L 35.992563 41.827417 
z
" style="fill: #ffffff"/>
   </g>
   <g id="matplotlib.axis_1">
    <g id="xtick_1">
     <g id="line2d_1">
      <path d="M 40.73813 122.294156 
L 40.73813 41.827417 
" clip-path="url(#p238ff47106)" style="fill: none; stroke-dasharray: 1.85,0.8; stroke-dashoffset: 0; stroke: #000000; stroke-opacity: 0.15; stroke-width: 0.5"/>
     </g>
    </g>
    <g id="xtick_2">
     <g id="line2d_2">
      <path d="M 70.868715 122.294156 
L 70.868715 41.827417 
" clip-path="url(#p238ff47106)" style="fill: none; stroke-dasharray: 1.85,0.8; stroke-dashoffset: 0; stroke: #000000; stroke-opacity: 0.15; stroke-width: 0.5"/>
     </g>
    </g>
    <g id="xtick_3">
     <g id="line2d_3">
      <path d="M 100.999301 122.294156 
L 100.999301 41.827417 
" clip-path="url(#p238ff47106)" style="fill: none; stroke-dasharray: 1.85,0.8; stroke-dashoffset: 0; stroke: #000000; stroke-opacity: 0.15; stroke-width: 0.5"/>
     </g>
    </g>
    <g id="xtick_4">
     <g id="line2d_4">
      <path d="M 131.129887 122.294156 
L 131.129887 41.827417 
" clip-path="url(#p238ff47106)" style="fill: none; stroke-dasharray: 1.85,0.8; stroke-dashoffset: 0; stroke: #000000; stroke-opacity: 0.15; stroke-width: 0.5"/>
     </g>
    </g>
    <g id="xtick_5"/>
    <g id="xtick_6"/>
    <g id="xtick_7"/>
   </g>
   <g id="matplotlib.axis_2">
    <g id="ytick_1">
     <g id="line2d_5">
      <path d="M 35.992563 119.431703 
L 140.395042 119.431703 
" clip-path="url(#p238ff47106)" style="fill: none; stroke-dasharray: 1.85,0.8; stroke-dashoffset: 0; stroke: #000000; stroke-opacity: 0.15; stroke-width: 0.5"/>
     </g>
     <g id="line2d_6">
      <path d="M 35.992563 119.431703 
" style="fill: none; stroke: #333333; stroke-width: 1.5; stroke-linecap: round"/>
      <defs>
       <path id="m40f61877b6" d="M 0 0 
L -2.75 0 
" style="stroke: #333333"/>
      </defs>
      <g>
       <use xlink:href="#m40f61877b6" x="35.992563" y="119.431703" style="fill: #333333; stroke: #333333"/>
      </g>
     </g>
     <g id="text_1">
      <text style="font-size: 8.8px; font-family: 'Georgia'; text-anchor: end; fill: #4d4d4d" x="31.242563" y="122.757828" transform="rotate(-0 31.242563 122.757828)">-50</text>
     </g>
    </g>
    <g id="ytick_2">
     <g id="line2d_7">
      <path d="M 35.992563 99.553556 
L 140.395042 99.553556 
" clip-path="url(#p238ff47106)" style="fill: none; stroke-dasharray: 1.85,0.8; stroke-dashoffset: 0; stroke: #000000; stroke-opacity: 0.15; stroke-width: 0.5"/>
     </g>
     <g id="line2d_8">
      <path d="M 35.992563 99.553556 
" style="fill: none; stroke: #333333; stroke-width: 1.5; stroke-linecap: round"/>
      <g>
       <use xlink:href="#m40f61877b6" x="35.992563" y="99.553556" style="fill: #333333; stroke: #333333"/>
      </g>
     </g>
     <g id="text_2">
      <text style="font-size: 8.8px; font-family: 'Georgia'; text-anchor: end; fill: #4d4d4d" x="31.242563" y="102.879681" transform="rotate(-0 31.242563 102.879681)">-25</text>
     </g>
    </g>
    <g id="ytick_3">
     <g id="line2d_9">
      <path d="M 35.992563 79.675409 
L 140.395042 79.675409 
" clip-path="url(#p238ff47106)" style="fill: none; stroke-dasharray: 1.85,0.8; stroke-dashoffset: 0; stroke: #000000; stroke-opacity: 0.15; stroke-width: 0.5"/>
     </g>
     <g id="line2d_10">
      <path d="M 35.992563 79.675409 
" style="fill: none; stroke: #333333; stroke-width: 1.5; stroke-linecap: round"/>
      <g>
       <use xlink:href="#m40f61877b6" x="35.992563" y="79.675409" style="fill: #333333; stroke: #333333"/>
      </g>
     </g>
     <g id="text_3">
      <text style="font-size: 8.8px; font-family: 'Georgia'; text-anchor: end; fill: #4d4d4d" x="31.242563" y="83.001534" transform="rotate(-0 31.242563 83.001534)">0</text>
     </g>
    </g>
    <g id="ytick_4">
     <g id="line2d_11">
      <path d="M 35.992563 59.797262 
L 140.395042 59.797262 
" clip-path="url(#p238ff47106)" style="fill: none; stroke-dasharray: 1.85,0.8; stroke-dashoffset: 0; stroke: #000000; stroke-opacity: 0.15; stroke-width: 0.5"/>
     </g>
     <g id="line2d_12">
      <path d="M 35.992563 59.797262 
" style="fill: none; stroke: #333333; stroke-width: 1.5; stroke-linecap: round"/>
      <g>
       <use xlink:href="#m40f61877b6" x="35.992563" y="59.797262" style="fill: #333333; stroke: #333333"/>
      </g>
     </g>
     <g id="text_4">
      <text style="font-size: 8.8px; font-family: 'Georgia'; text-anchor: end; fill: #4d4d4d" x="31.242563" y="63.123387" transform="rotate(-0 31.242563 63.123387)">25</text>
     </g>
    </g>
    <g id="ytick_5"/>
    <g id="ytick_6"/>
    <g id="ytick_7"/>
    <g id="ytick_8"/>
   </g>
   <g id="line2d_13">
    <path d="M 40.73813 78.880283 
L 42.244659 78.880283 
L 43.751188 78.880283 
L 45.257718 78.880283 
L 46.764247 78.48272 
L 48.270776 78.880283 
L 49.777305 78.48272 
L 51.283835 78.085157 
L 52.790364 78.085157 
L 54.296893 78.085157 
L 55.803423 78.085157 
L 57.309952 79.675409 
L 58.816481 82.855912 
L 60.32301 78.880283 
L 61.82954 74.904653 
L 63.336069 78.085157 
L 64.842598 81.265661 
L 66.349128 78.880283 
L 67.855657 75.699779 
L 69.362186 78.085157 
L 70.868715 81.265661 
L 72.375245 78.880283 
L 73.881774 75.302216 
L 75.388303 74.904653 
L 76.894832 73.314402 
L 78.401362 57.411884 
L 79.907891 49.460625 
L 81.41442 60.592388 
L 82.92095 70.929024 
L 84.427479 68.543646 
L 85.934008 65.363143 
L 87.440537 70.929024 
L 88.947067 75.699779 
L 90.453596 76.494905 
L 91.960125 79.675409 
L 93.466655 74.507091 
L 94.973184 68.146083 
L 96.479713 75.699779 
L 97.986242 82.855912 
L 99.492772 78.880283 
L 100.999301 73.314402 
L 102.50583 78.880283 
L 104.01236 82.855912 
L 105.518889 76.892468 
L 107.025418 69.736335 
L 108.531947 74.904653 
L 110.038477 73.314402 
L 111.545006 78.085157 
L 113.051535 78.48272 
L 114.558064 78.880283 
L 116.064594 79.675409 
L 117.571123 78.085157 
L 119.077652 74.904653 
L 120.584182 77.290031 
L 122.090711 78.085157 
L 123.59724 77.290031 
L 125.103769 78.880283 
L 126.610299 79.675409 
L 128.116828 82.855912 
L 129.623357 78.880283 
L 131.129887 76.494905 
L 132.636416 76.494905 
L 134.142945 78.085157 
L 135.649474 77.290031 
" clip-path="url(#p238ff47106)" style="fill: none; stroke: #db5f57; stroke-width: 0.886227"/>
   </g>
   <g id="line2d_14">
    <path d="M 40.73813 79.675409 
L 42.244659 78.880283 
L 43.751188 79.675409 
L 45.257718 78.880283 
L 46.764247 79.675409 
L 48.270776 78.880283 
L 49.777305 78.085157 
L 51.283835 78.880283 
L 52.790364 79.675409 
L 54.296893 78.085157 
L 55.803423 77.290031 
L 57.309952 80.072972 
L 58.816481 84.446164 
L 60.32301 78.880283 
L 61.82954 74.109528 
L 63.336069 78.085157 
L 64.842598 82.855912 
L 66.349128 78.880283 
L 67.855657 75.699779 
L 69.362186 79.277846 
L 70.868715 83.651038 
L 72.375245 78.880283 
L 73.881774 72.519276 
L 75.388303 77.290031 
L 76.894832 83.253475 
L 78.401362 75.699779 
L 79.907891 71.72415 
L 81.41442 76.494905 
L 82.92095 86.831542 
L 84.427479 77.290031 
L 85.934008 72.519276 
L 87.440537 75.699779 
L 88.947067 82.060786 
L 90.453596 79.675409 
L 91.960125 81.663224 
L 93.466655 77.290031 
L 94.973184 72.916839 
L 96.479713 78.085157 
L 97.986242 83.651038 
L 99.492772 78.880283 
L 100.999301 74.109528 
L 102.50583 79.675409 
L 104.01236 84.843727 
L 105.518889 78.085157 
L 107.025418 69.736335 
L 108.531947 77.290031 
L 110.038477 79.675409 
L 111.545006 78.085157 
L 113.051535 74.904653 
L 114.558064 78.880283 
L 116.064594 83.651038 
L 117.571123 78.085157 
L 119.077652 73.314402 
L 120.584182 77.290031 
L 122.090711 82.060786 
L 123.59724 78.880283 
L 125.103769 77.290031 
L 126.610299 79.675409 
L 128.116828 84.446164 
L 129.623357 78.880283 
L 131.129887 74.904653 
L 132.636416 77.290031 
L 134.142945 79.675409 
L 135.649474 78.085157 
" clip-path="url(#p238ff47106)" style="fill: none; stroke: #91db57; stroke-width: 0.886227"/>
   </g>
   <g id="line2d_15">
    <path d="M 40.73813 78.880283 
L 42.244659 78.880283 
L 43.751188 79.675409 
L 45.257718 78.880283 
L 46.764247 79.675409 
L 48.270776 78.085157 
L 49.777305 78.085157 
L 51.283835 78.880283 
L 52.790364 81.265661 
L 54.296893 77.290031 
L 55.803423 74.109528 
L 57.309952 80.470535 
L 58.816481 88.421794 
L 60.32301 78.085157 
L 61.82954 68.543646 
L 63.336069 78.085157 
L 64.842598 89.216919 
L 66.349128 78.880283 
L 67.855657 69.338772 
L 69.362186 80.072972 
L 70.868715 92.397423 
L 72.375245 78.085157 
L 73.881774 64.568017 
L 75.388303 78.085157 
L 76.894832 95.577927 
L 78.401362 78.880283 
L 79.907891 66.953395 
L 81.41442 80.470535 
L 82.92095 100.348682 
L 84.427479 79.675409 
L 85.934008 65.363143 
L 87.440537 75.699779 
L 88.947067 89.216919 
L 90.453596 83.651038 
L 91.960125 82.060786 
L 93.466655 77.290031 
L 94.973184 70.133898 
L 96.479713 76.494905 
L 97.986242 82.855912 
L 99.492772 79.675409 
L 100.999301 74.109528 
L 102.50583 80.470535 
L 104.01236 86.036416 
L 105.518889 78.085157 
L 107.025418 67.748521 
L 108.531947 78.085157 
L 110.038477 81.265661 
L 111.545006 77.290031 
L 113.051535 67.350958 
L 114.558064 80.470535 
L 116.064594 90.807171 
L 117.571123 78.880283 
L 119.077652 65.363143 
L 120.584182 76.494905 
L 122.090711 86.831542 
L 123.59724 78.085157 
L 125.103769 72.519276 
L 126.610299 80.470535 
L 128.116828 90.807171 
L 129.623357 78.880283 
L 131.129887 68.543646 
L 132.636416 76.494905 
L 134.142945 85.638853 
L 135.649474 78.880283 
" clip-path="url(#p238ff47106)" style="fill: none; stroke: #57d3db; stroke-width: 0.886227"/>
   </g>
   <g id="line2d_16">
    <path d="M 40.73813 78.880283 
L 42.244659 78.880283 
L 43.751188 79.675409 
L 45.257718 78.880283 
L 46.764247 79.675409 
L 48.270776 78.085157 
L 49.777305 78.085157 
L 51.283835 78.880283 
L 52.790364 81.265661 
L 54.296893 78.085157 
L 55.803423 76.494905 
L 57.309952 80.470535 
L 58.816481 87.626668 
L 60.32301 78.085157 
L 61.82954 70.929024 
L 63.336069 78.085157 
L 64.842598 85.24129 
L 66.349128 79.675409 
L 67.855657 74.904653 
L 69.362186 79.675409 
L 70.868715 85.24129 
L 72.375245 77.290031 
L 73.881774 70.133898 
L 75.388303 78.085157 
L 76.894832 87.626668 
L 78.401362 78.085157 
L 79.907891 70.133898 
L 81.41442 79.675409 
L 82.92095 90.807171 
L 84.427479 78.880283 
L 85.934008 66.953395 
L 87.440537 74.904653 
L 88.947067 83.651038 
L 90.453596 82.855912 
L 91.960125 84.446164 
L 93.466655 75.699779 
L 94.973184 66.158269 
L 96.479713 78.085157 
L 97.986242 90.807171 
L 99.492772 79.675409 
L 100.999301 68.543646 
L 102.50583 78.880283 
L 104.01236 89.216919 
L 105.518889 78.085157 
L 107.025418 67.748521 
L 108.531947 76.494905 
L 110.038477 82.855912 
L 111.545006 78.085157 
L 113.051535 70.929024 
L 114.558064 78.880283 
L 116.064594 85.24129 
L 117.571123 78.880283 
L 119.077652 74.904653 
L 120.584182 76.494905 
L 122.090711 79.675409 
L 123.59724 78.48272 
L 125.103769 78.085157 
L 126.610299 79.277846 
L 128.116828 82.060786 
L 129.623357 78.880283 
L 131.129887 76.494905 
L 132.636416 78.085157 
L 134.142945 79.675409 
L 135.649474 78.085157 
" clip-path="url(#p238ff47106)" style="fill: none; stroke: #a157db; stroke-width: 0.886227"/>
   </g>
  </g>
  <g id="axes_2">
   <g id="patch_3">
    <path d="M 143.995042 122.294156 
L 248.397521 122.294156 
L 248.397521 41.827417 
L 143.995042 41.827417 
z
" style="fill: #ffffff"/>
   </g>
   <g id="matplotlib.axis_3">
    <g id="xtick_8">
     <g id="line2d_17">
      <path d="M 148.740609 122.294156 
L 148.740609 41.827417 
" clip-path="url(#p3d715d555d)" style="fill: none; stroke-dasharray: 1.85,0.8; stroke-dashoffset: 0; stroke: #000000; stroke-opacity: 0.15; stroke-width: 0.5"/>
     </g>
    </g>
    <g id="xtick_9">
     <g id="line2d_18">
      <path d="M 178.871195 122.294156 
L 178.871195 41.827417 
" clip-path="url(#p3d715d555d)" style="fill: none; stroke-dasharray: 1.85,0.8; stroke-dashoffset: 0; stroke: #000000; stroke-opacity: 0.15; stroke-width: 0.5"/>
     </g>
    </g>
    <g id="xtick_10">
     <g id="line2d_19">
      <path d="M 209.00178 122.294156 
L 209.00178 41.827417 
" clip-path="url(#p3d715d555d)" style="fill: none; stroke-dasharray: 1.85,0.8; stroke-dashoffset: 0; stroke: #000000; stroke-opacity: 0.15; stroke-width: 0.5"/>
     </g>
    </g>
    <g id="xtick_11">
     <g id="line2d_20">
      <path d="M 239.132366 122.294156 
L 239.132366 41.827417 
" clip-path="url(#p3d715d555d)" style="fill: none; stroke-dasharray: 1.85,0.8; stroke-dashoffset: 0; stroke: #000000; stroke-opacity: 0.15; stroke-width: 0.5"/>
     </g>
    </g>
    <g id="xtick_12"/>
    <g id="xtick_13"/>
    <g id="xtick_14"/>
   </g>
   <g id="matplotlib.axis_4">
    <g id="ytick_9">
     <g id="line2d_21">
      <path d="M 143.995042 119.431703 
L 248.397521 119.431703 
" clip-path="url(#p3d715d555d)" style="fill: none; stroke-dasharray: 1.85,0.8; stroke-dashoffset: 0; stroke: #000000; stroke-opacity: 0.15; stroke-width: 0.5"/>
     </g>
    </g>
    <g id="ytick_10">
     <g id="line2d_22">
      <path d="M 143.995042 99.553556 
L 248.397521 99.553556 
" clip-path="url(#p3d715d555d)" style="fill: none; stroke-dasharray: 1.85,0.8; stroke-dashoffset: 0; stroke: #000000; stroke-opacity: 0.15; stroke-width: 0.5"/>
     </g>
    </g>
    <g id="ytick_11">
     <g id="line2d_23">
      <path d="M 143.995042 79.675409 
L 248.397521 79.675409 
" clip-path="url(#p3d715d555d)" style="fill: none; stroke-dasharray: 1.85,0.8; stroke-dashoffset: 0; stroke: #000000; stroke-opacity: 0.15; stroke-width: 0.5"/>
     </g>
    </g>
    <g id="ytick_12">
     <g id="line2d_24">
      <path d="M 143.995042 59.797262 
L 248.397521 59.797262 
" clip-path="url(#p3d715d555d)" style="fill: none; stroke-dasharray: 1.85,0.8; stroke-dashoffset: 0; stroke: #000000; stroke-opacity: 0.15; stroke-width: 0.5"/>
     </g>
    </g>
    <g id="ytick_13"/>
    <g id="ytick_14"/>
    <g id="ytick_15"/>
    <g id="ytick_16"/>
   </g>
   <g id="line2d_25">
    <path d="M 148.740609 78.085157 
L 150.247138 78.085157 
L 151.753667 78.085157 
L 153.260197 78.085157 
L 154.766726 78.880283 
L 156.273255 78.880283 
L 157.779785 78.085157 
L 159.286314 77.290031 
L 160.792843 78.085157 
L 162.299372 76.494905 
L 163.805902 76.494905 
L 165.312431 77.290031 
L 166.81896 77.290031 
L 168.32549 82.060786 
L 169.832019 83.651038 
L 171.338548 78.085157 
L 172.845077 73.314402 
L 174.351607 73.314402 
L 175.858136 74.904653 
L 177.364665 77.290031 
L 178.871195 82.060786 
L 180.377724 75.699779 
L 181.884253 71.72415 
L 183.390782 58.20701 
L 184.897312 49.460625 
L 186.403841 54.23138 
L 187.91037 61.387513 
L 189.416899 67.748521 
L 190.923429 81.265661 
L 192.429958 74.109528 
L 193.936487 72.519276 
L 195.443017 75.699779 
L 196.949546 87.626668 
L 198.456075 72.519276 
L 199.962604 62.977765 
L 201.469134 75.699779 
L 202.975663 90.012045 
L 204.482192 81.265661 
L 205.988722 76.494905 
L 207.495251 74.904653 
L 209.00178 78.085157 
L 210.508309 73.314402 
L 212.014839 70.929024 
L 213.521368 78.085157 
L 215.027897 87.626668 
L 216.534427 80.470535 
L 218.040956 74.109528 
L 219.547485 74.109528 
L 221.054014 74.904653 
L 222.560544 77.290031 
L 224.067073 77.290031 
L 225.573602 79.675409 
L 227.080132 79.675409 
L 228.586661 78.085157 
L 230.09319 78.085157 
L 231.599719 74.904653 
L 233.106249 72.519276 
L 234.612778 79.675409 
L 236.119307 86.831542 
L 237.625836 80.470535 
L 239.132366 76.494905 
L 240.638895 77.290031 
L 242.145424 80.470535 
L 243.651954 76.494905 
" clip-path="url(#p3d715d555d)" style="fill: none; stroke: #db5f57; stroke-width: 0.886227"/>
   </g>
   <g id="line2d_26">
    <path d="M 148.740609 78.085157 
L 150.247138 78.880283 
L 151.753667 79.675409 
L 153.260197 78.880283 
L 154.766726 79.675409 
L 156.273255 78.880283 
L 157.779785 78.085157 
L 159.286314 78.085157 
L 160.792843 78.085157 
L 162.299372 77.290031 
L 163.805902 78.880283 
L 165.312431 79.675409 
L 166.81896 82.060786 
L 168.32549 80.470535 
L 169.832019 81.265661 
L 171.338548 76.494905 
L 172.845077 74.904653 
L 174.351607 75.699779 
L 175.858136 77.290031 
L 177.364665 81.265661 
L 178.871195 86.036416 
L 180.377724 79.675409 
L 181.884253 74.904653 
L 183.390782 67.748521 
L 184.897312 63.772891 
L 186.403841 65.363143 
L 187.91037 69.338772 
L 189.416899 78.085157 
L 190.923429 88.421794 
L 192.429958 79.675409 
L 193.936487 74.904653 
L 195.443017 77.290031 
L 196.949546 84.446164 
L 198.456075 73.314402 
L 199.962604 66.158269 
L 201.469134 78.085157 
L 202.975663 94.782801 
L 204.482192 82.855912 
L 205.988722 73.314402 
L 207.495251 74.109528 
L 209.00178 79.675409 
L 210.508309 75.699779 
L 212.014839 71.72415 
L 213.521368 78.880283 
L 215.027897 88.421794 
L 216.534427 80.470535 
L 218.040956 73.314402 
L 219.547485 73.314402 
L 221.054014 73.314402 
L 222.560544 78.085157 
L 224.067073 80.470535 
L 225.573602 80.470535 
L 227.080132 78.880283 
L 228.586661 78.880283 
L 230.09319 79.675409 
L 231.599719 76.494905 
L 233.106249 71.72415 
L 234.612778 79.675409 
L 236.119307 87.626668 
L 237.625836 80.470535 
L 239.132366 77.290031 
L 240.638895 78.085157 
L 242.145424 81.265661 
L 243.651954 76.494905 
" clip-path="url(#p3d715d555d)" style="fill: none; stroke: #91db57; stroke-width: 0.886227"/>
   </g>
   <g id="line2d_27">
    <path d="M 148.740609 78.085157 
L 150.247138 78.085157 
L 151.753667 78.880283 
L 153.260197 78.880283 
L 154.766726 78.085157 
L 156.273255 78.880283 
L 157.779785 79.675409 
L 159.286314 77.290031 
L 160.792843 76.494905 
L 162.299372 76.494905 
L 163.805902 77.290031 
L 165.312431 81.265661 
L 166.81896 86.831542 
L 168.32549 79.675409 
L 169.832019 76.494905 
L 171.338548 75.699779 
L 172.845077 78.085157 
L 174.351607 78.085157 
L 175.858136 78.085157 
L 177.364665 85.24129 
L 178.871195 90.807171 
L 180.377724 82.855912 
L 181.884253 84.446164 
L 183.390782 74.109528 
L 184.897312 68.543646 
L 186.403841 75.699779 
L 187.91037 78.880283 
L 189.416899 86.831542 
L 190.923429 93.987675 
L 192.429958 79.675409 
L 193.936487 74.109528 
L 195.443017 78.880283 
L 196.949546 93.192549 
L 198.456075 77.290031 
L 199.962604 65.363143 
L 201.469134 81.265661 
L 202.975663 95.577927 
L 204.482192 79.675409 
L 205.988722 63.772891 
L 207.495251 74.904653 
L 209.00178 89.216919 
L 210.508309 78.085157 
L 212.014839 67.748521 
L 213.521368 82.060786 
L 215.027897 100.348682 
L 216.534427 79.675409 
L 218.040956 62.182639 
L 219.547485 71.72415 
L 221.054014 79.675409 
L 222.560544 82.060786 
L 224.067073 80.470535 
L 225.573602 80.470535 
L 227.080132 76.494905 
L 228.586661 77.290031 
L 230.09319 80.470535 
L 231.599719 75.699779 
L 233.106249 70.133898 
L 234.612778 81.265661 
L 236.119307 92.397423 
L 237.625836 80.470535 
L 239.132366 76.494905 
L 240.638895 77.290031 
L 242.145424 81.265661 
L 243.651954 75.699779 
" clip-path="url(#p3d715d555d)" style="fill: none; stroke: #57d3db; stroke-width: 0.886227"/>
   </g>
   <g id="line2d_28">
    <path d="M 148.740609 78.085157 
L 150.247138 78.880283 
L 151.753667 79.675409 
L 153.260197 79.675409 
L 154.766726 79.675409 
L 156.273255 78.880283 
L 157.779785 78.085157 
L 159.286314 78.085157 
L 160.792843 78.085157 
L 162.299372 77.290031 
L 163.805902 78.085157 
L 165.312431 81.265661 
L 166.81896 85.24129 
L 168.32549 78.880283 
L 169.832019 74.904653 
L 171.338548 76.494905 
L 172.845077 80.470535 
L 174.351607 78.085157 
L 175.858136 76.494905 
L 177.364665 82.060786 
L 178.871195 86.831542 
L 180.377724 77.290031 
L 181.884253 70.133898 
L 183.390782 71.72415 
L 184.897312 71.72415 
L 186.403841 73.314402 
L 187.91037 74.904653 
L 189.416899 81.265661 
L 190.923429 89.216919 
L 192.429958 76.494905 
L 193.936487 62.182639 
L 195.443017 76.494905 
L 196.949546 91.602297 
L 198.456075 78.880283 
L 199.962604 68.543646 
L 201.469134 78.085157 
L 202.975663 89.216919 
L 204.482192 78.880283 
L 205.988722 68.543646 
L 207.495251 74.904653 
L 209.00178 82.060786 
L 210.508309 80.470535 
L 212.014839 79.675409 
L 213.521368 79.675409 
L 215.027897 79.675409 
L 216.534427 78.085157 
L 218.040956 74.904653 
L 219.547485 74.904653 
L 221.054014 74.904653 
L 222.560544 81.265661 
L 224.067073 89.216919 
L 225.573602 78.880283 
L 227.080132 68.543646 
L 228.586661 75.699779 
L 230.09319 83.651038 
L 231.599719 78.085157 
L 233.106249 72.519276 
L 234.612778 79.675409 
L 236.119307 88.421794 
L 237.625836 80.470535 
L 239.132366 73.314402 
L 240.638895 76.494905 
L 242.145424 79.675409 
L 243.651954 77.290031 
" clip-path="url(#p3d715d555d)" style="fill: none; stroke: #a157db; stroke-width: 0.886227"/>
   </g>
  </g>
  <g id="axes_3">
   <g id="patch_4">
    <path d="M 251.997521 122.294156 
L 356.4 122.294156 
L 356.4 41.827417 
L 251.997521 41.827417 
z
" style="fill: #ffffff"/>
   </g>
   <g id="matplotlib.axis_5">
    <g id="xtick_15">
     <g id="line2d_29">
      <path d="M 256.743088 122.294156 
L 256.743088 41.827417 
" clip-path="url(#paf8e6206df)" style="fill: none; stroke-dasharray: 1.85,0.8; stroke-dashoffset: 0; stroke: #000000; stroke-opacity: 0.15; stroke-width: 0.5"/>
     </g>
    </g>
    <g id="xtick_16">
     <g id="line2d_30">
      <path d="M 286.873674 122.294156 
L 286.873674 41.827417 
" clip-path="url(#paf8e6206df)" style="fill: none; stroke-dasharray: 1.85,0.8; stroke-dashoffset: 0; stroke: #000000; stroke-opacity: 0.15; stroke-width: 0.5"/>
     </g>
    </g>
    <g id="xtick_17">
     <g id="line2d_31">
      <path d="M 317.004259 122.294156 
L 317.004259 41.827417 
" clip-path="url(#paf8e6206df)" style="fill: none; stroke-dasharray: 1.85,0.8; stroke-dashoffset: 0; stroke: #000000; stroke-opacity: 0.15; stroke-width: 0.5"/>
     </g>
    </g>
    <g id="xtick_18">
     <g id="line2d_32">
      <path d="M 347.134845 122.294156 
L 347.134845 41.827417 
" clip-path="url(#paf8e6206df)" style="fill: none; stroke-dasharray: 1.85,0.8; stroke-dashoffset: 0; stroke: #000000; stroke-opacity: 0.15; stroke-width: 0.5"/>
     </g>
    </g>
    <g id="xtick_19"/>
    <g id="xtick_20"/>
    <g id="xtick_21"/>
   </g>
   <g id="matplotlib.axis_6">
    <g id="ytick_17">
     <g id="line2d_33">
      <path d="M 251.997521 119.431703 
L 356.4 119.431703 
" clip-path="url(#paf8e6206df)" style="fill: none; stroke-dasharray: 1.85,0.8; stroke-dashoffset: 0; stroke: #000000; stroke-opacity: 0.15; stroke-width: 0.5"/>
     </g>
    </g>
    <g id="ytick_18">
     <g id="line2d_34">
      <path d="M 251.997521 99.553556 
L 356.4 99.553556 
" clip-path="url(#paf8e6206df)" style="fill: none; stroke-dasharray: 1.85,0.8; stroke-dashoffset: 0; stroke: #000000; stroke-opacity: 0.15; stroke-width: 0.5"/>
     </g>
    </g>
    <g id="ytick_19">
     <g id="line2d_35">
      <path d="M 251.997521 79.675409 
L 356.4 79.675409 
" clip-path="url(#paf8e6206df)" style="fill: none; stroke-dasharray: 1.85,0.8; stroke-dashoffset: 0; stroke: #000000; stroke-opacity: 0.15; stroke-width: 0.5"/>
     </g>
    </g>
    <g id="ytick_20">
     <g id="line2d_36">
      <path d="M 251.997521 59.797262 
L 356.4 59.797262 
" clip-path="url(#paf8e6206df)" style="fill: none; stroke-dasharray: 1.85,0.8; stroke-dashoffset: 0; stroke: #000000; stroke-opacity: 0.15; stroke-width: 0.5"/>
     </g>
    </g>
    <g id="ytick_21"/>
    <g id="ytick_22"/>
    <g id="ytick_23"/>
    <g id="ytick_24"/>
   </g>
   <g id="line2d_37">
    <path d="M 256.743088 78.085157 
L 258.249617 78.085157 
L 259.756147 78.085157 
L 261.262676 78.085157 
L 262.769205 78.085157 
L 264.275734 78.880283 
L 265.782264 78.880283 
L 267.288793 78.085157 
L 268.795322 78.085157 
L 270.301852 78.880283 
L 271.808381 79.675409 
L 273.31491 78.085157 
L 274.821439 77.290031 
L 276.327969 79.675409 
L 277.834498 83.651038 
L 279.341027 78.880283 
L 280.847557 78.085157 
L 282.354086 76.494905 
L 283.860615 73.314402 
L 285.367144 78.085157 
L 286.873674 76.494905 
L 288.380203 74.109528 
L 289.886732 70.133898 
L 291.393262 59.002136 
L 292.899791 52.641129 
L 294.40632 56.616758 
L 295.912849 62.182639 
L 297.419379 67.748521 
L 298.925908 73.314402 
L 300.432437 66.953395 
L 301.938966 57.411884 
L 303.445496 77.290031 
L 304.952025 92.397423 
L 306.458554 78.880283 
L 307.965084 63.772891 
L 309.471613 74.904653 
L 310.978142 82.855912 
L 312.484671 76.494905 
L 313.991201 70.133898 
L 315.49773 77.290031 
L 317.004259 84.446164 
L 318.510789 78.880283 
L 320.017318 74.904653 
L 321.523847 77.290031 
L 323.030376 81.265661 
L 324.536906 76.494905 
L 326.043435 67.748521 
L 327.549964 77.290031 
L 329.056494 82.855912 
L 330.563023 79.675409 
L 332.069552 73.314402 
L 333.576081 78.085157 
L 335.082611 79.675409 
L 336.58914 77.290031 
L 338.095669 78.085157 
L 339.602199 76.494905 
L 341.108728 78.880283 
L 342.615257 80.470535 
L 344.121786 86.831542 
L 345.628316 80.470535 
L 347.134845 76.494905 
L 348.641374 77.290031 
L 350.147903 81.265661 
L 351.654433 77.290031 
" clip-path="url(#paf8e6206df)" style="fill: none; stroke: #db5f57; stroke-width: 0.886227"/>
   </g>
   <g id="line2d_38">
    <path d="M 256.743088 78.085157 
L 258.249617 78.085157 
L 259.756147 78.085157 
L 261.262676 78.880283 
L 262.769205 78.880283 
L 264.275734 78.880283 
L 265.782264 79.675409 
L 267.288793 78.880283 
L 268.795322 78.085157 
L 270.301852 78.085157 
L 271.808381 78.880283 
L 273.31491 79.675409 
L 274.821439 80.470535 
L 276.327969 79.675409 
L 277.834498 78.880283 
L 279.341027 78.880283 
L 280.847557 79.675409 
L 282.354086 77.290031 
L 283.860615 74.109528 
L 285.367144 79.675409 
L 286.873674 86.036416 
L 288.380203 77.290031 
L 289.886732 70.133898 
L 291.393262 71.72415 
L 292.899791 71.72415 
L 294.40632 71.72415 
L 295.912849 67.748521 
L 297.419379 75.699779 
L 298.925908 82.855912 
L 300.432437 73.314402 
L 301.938966 60.592388 
L 303.445496 78.880283 
L 304.952025 96.373052 
L 306.458554 78.880283 
L 307.965084 62.182639 
L 309.471613 74.904653 
L 310.978142 87.626668 
L 312.484671 78.085157 
L 313.991201 68.543646 
L 315.49773 76.494905 
L 317.004259 84.446164 
L 318.510789 79.675409 
L 320.017318 75.699779 
L 321.523847 78.085157 
L 323.030376 81.265661 
L 324.536906 77.290031 
L 326.043435 70.133898 
L 327.549964 75.699779 
L 329.056494 78.085157 
L 330.563023 79.675409 
L 332.069552 79.675409 
L 333.576081 78.085157 
L 335.082611 75.699779 
L 336.58914 78.085157 
L 338.095669 84.446164 
L 339.602199 76.494905 
L 341.108728 74.904653 
L 342.615257 78.880283 
L 344.121786 88.421794 
L 345.628316 79.675409 
L 347.134845 74.904653 
L 348.641374 77.290031 
L 350.147903 82.855912 
L 351.654433 77.290031 
" clip-path="url(#paf8e6206df)" style="fill: none; stroke: #91db57; stroke-width: 0.886227"/>
   </g>
   <g id="line2d_39">
    <path d="M 256.743088 78.880283 
L 258.249617 78.880283 
L 259.756147 79.675409 
L 261.262676 78.880283 
L 262.769205 78.085157 
L 264.275734 78.880283 
L 265.782264 80.470535 
L 267.288793 78.880283 
L 268.795322 78.085157 
L 270.301852 77.290031 
L 271.808381 78.085157 
L 273.31491 80.470535 
L 274.821439 84.446164 
L 276.327969 80.470535 
L 277.834498 77.290031 
L 279.341027 78.085157 
L 280.847557 86.036416 
L 282.354086 78.880283 
L 283.860615 72.519276 
L 285.367144 82.855912 
L 286.873674 96.373052 
L 288.380203 77.290031 
L 289.886732 63.772891 
L 291.393262 77.290031 
L 292.899791 91.602297 
L 294.40632 79.675409 
L 295.912849 69.338772 
L 297.419379 82.855912 
L 298.925908 98.75843 
L 300.432437 71.72415 
L 301.938966 45.484996 
L 303.445496 81.265661 
L 304.952025 118.636577 
L 306.458554 81.265661 
L 307.965084 47.870373 
L 309.471613 77.290031 
L 310.978142 105.119437 
L 312.484671 77.290031 
L 313.991201 52.641129 
L 315.49773 75.699779 
L 317.004259 100.348682 
L 318.510789 81.265661 
L 320.017318 61.387513 
L 321.523847 81.265661 
L 323.030376 105.119437 
L 324.536906 76.494905 
L 326.043435 46.280122 
L 327.549964 72.519276 
L 329.056494 94.782801 
L 330.563023 84.446164 
L 332.069552 77.290031 
L 333.576081 78.085157 
L 335.082611 77.290031 
L 336.58914 78.880283 
L 338.095669 86.036416 
L 339.602199 76.494905 
L 341.108728 67.748521 
L 342.615257 80.470535 
L 344.121786 96.373052 
L 345.628316 79.675409 
L 347.134845 66.158269 
L 348.641374 78.880283 
L 350.147903 92.397423 
L 351.654433 77.290031 
" clip-path="url(#paf8e6206df)" style="fill: none; stroke: #57d3db; stroke-width: 0.886227"/>
   </g>
   <g id="line2d_40">
    <path d="M 256.743088 78.085157 
L 258.249617 78.085157 
L 259.756147 78.085157 
L 261.262676 78.085157 
L 262.769205 78.880283 
L 264.275734 78.880283 
L 265.782264 78.880283 
L 267.288793 78.085157 
L 268.795322 78.085157 
L 270.301852 78.085157 
L 271.808381 78.085157 
L 273.31491 79.675409 
L 274.821439 82.855912 
L 276.327969 78.085157 
L 277.834498 74.109528 
L 279.341027 78.085157 
L 280.847557 82.855912 
L 282.354086 78.085157 
L 283.860615 69.338772 
L 285.367144 82.060786 
L 286.873674 94.782801 
L 288.380203 76.494905 
L 289.886732 59.002136 
L 291.393262 74.109528 
L 292.899791 84.446164 
L 294.40632 75.699779 
L 295.912849 65.363143 
L 297.419379 78.085157 
L 298.925908 89.216919 
L 300.432437 74.109528 
L 301.938966 55.821632 
L 303.445496 78.085157 
L 304.952025 99.553556 
L 306.458554 81.265661 
L 307.965084 62.182639 
L 309.471613 75.699779 
L 310.978142 88.421794 
L 312.484671 79.675409 
L 313.991201 71.72415 
L 315.49773 74.904653 
L 317.004259 74.109528 
L 318.510789 80.470535 
L 320.017318 88.421794 
L 321.523847 79.675409 
L 323.030376 70.929024 
L 324.536906 76.494905 
L 326.043435 81.265661 
L 327.549964 75.699779 
L 329.056494 67.748521 
L 330.563023 80.470535 
L 332.069552 91.602297 
L 333.576081 78.880283 
L 335.082611 66.953395 
L 336.58914 76.494905 
L 338.095669 86.036416 
L 339.602199 78.085157 
L 341.108728 70.929024 
L 342.615257 78.085157 
L 344.121786 86.036416 
L 345.628316 79.675409 
L 347.134845 74.904653 
L 348.641374 77.290031 
L 350.147903 79.675409 
L 351.654433 77.290031 
" clip-path="url(#paf8e6206df)" style="fill: none; stroke: #a157db; stroke-width: 0.886227"/>
   </g>
  </g>
  <g id="axes_4">
   <g id="patch_5">
    <path d="M 35.992563 220.788312 
L 140.395042 220.788312 
L 140.395042 140.321573 
L 35.992563 140.321573 
z
" style="fill: #ffffff"/>
   </g>
   <g id="matplotlib.axis_7">
    <g id="xtick_22">
     <g id="line2d_41">
      <path d="M 40.73813 220.788312 
L 40.73813 140.321573 
" clip-path="url(#pe68036ae6f)" style="fill: none; stroke-dasharray: 1.85,0.8; stroke-dashoffset: 0; stroke: #000000; stroke-opacity: 0.15; stroke-width: 0.5"/>
     </g>
     <g id="line2d_42">
      <path d="M 40.73813 220.788312 
" style="fill: none; stroke: #333333; stroke-width: 1.5; stroke-linecap: round"/>
      <defs>
       <path id="m9201bac073" d="M 0 0 
L 0 2.75 
" style="stroke: #333333"/>
      </defs>
      <g>
       <use xlink:href="#m9201bac073" x="40.73813" y="220.788312" style="fill: #333333; stroke: #333333"/>
      </g>
     </g>
     <g id="text_5">
      <text style="font-size: 8.8px; font-family: 'Georgia'; text-anchor: middle; fill: #4d4d4d" x="40.73813" y="232.190562" transform="rotate(-0 40.73813 232.190562)">0</text>
     </g>
    </g>
    <g id="xtick_23">
     <g id="line2d_43">
      <path d="M 70.868715 220.788312 
L 70.868715 140.321573 
" clip-path="url(#pe68036ae6f)" style="fill: none; stroke-dasharray: 1.85,0.8; stroke-dashoffset: 0; stroke: #000000; stroke-opacity: 0.15; stroke-width: 0.5"/>
     </g>
     <g id="line2d_44">
      <path d="M 70.868715 220.788312 
" style="fill: none; stroke: #333333; stroke-width: 1.5; stroke-linecap: round"/>
      <g>
       <use xlink:href="#m9201bac073" x="70.868715" y="220.788312" style="fill: #333333; stroke: #333333"/>
      </g>
     </g>
     <g id="text_6">
      <text style="font-size: 8.8px; font-family: 'Georgia'; text-anchor: middle; fill: #4d4d4d" x="70.868715" y="232.190562" transform="rotate(-0 70.868715 232.190562)">20</text>
     </g>
    </g>
    <g id="xtick_24">
     <g id="line2d_45">
      <path d="M 100.999301 220.788312 
L 100.999301 140.321573 
" clip-path="url(#pe68036ae6f)" style="fill: none; stroke-dasharray: 1.85,0.8; stroke-dashoffset: 0; stroke: #000000; stroke-opacity: 0.15; stroke-width: 0.5"/>
     </g>
     <g id="line2d_46">
      <path d="M 100.999301 220.788312 
" style="fill: none; stroke: #333333; stroke-width: 1.5; stroke-linecap: round"/>
      <g>
       <use xlink:href="#m9201bac073" x="100.999301" y="220.788312" style="fill: #333333; stroke: #333333"/>
      </g>
     </g>
     <g id="text_7">
      <text style="font-size: 8.8px; font-family: 'Georgia'; text-anchor: middle; fill: #4d4d4d" x="100.999301" y="232.190562" transform="rotate(-0 100.999301 232.190562)">40</text>
     </g>
    </g>
    <g id="xtick_25">
     <g id="line2d_47">
      <path d="M 131.129887 220.788312 
L 131.129887 140.321573 
" clip-path="url(#pe68036ae6f)" style="fill: none; stroke-dasharray: 1.85,0.8; stroke-dashoffset: 0; stroke: #000000; stroke-opacity: 0.15; stroke-width: 0.5"/>
     </g>
     <g id="line2d_48">
      <path d="M 131.129887 220.788312 
" style="fill: none; stroke: #333333; stroke-width: 1.5; stroke-linecap: round"/>
      <g>
       <use xlink:href="#m9201bac073" x="131.129887" y="220.788312" style="fill: #333333; stroke: #333333"/>
      </g>
     </g>
     <g id="text_8">
      <text style="font-size: 8.8px; font-family: 'Georgia'; text-anchor: middle; fill: #4d4d4d" x="131.129887" y="232.190562" transform="rotate(-0 131.129887 232.190562)">60</text>
     </g>
    </g>
    <g id="xtick_26"/>
    <g id="xtick_27"/>
    <g id="xtick_28"/>
   </g>
   <g id="matplotlib.axis_8">
    <g id="ytick_25">
     <g id="line2d_49">
      <path d="M 35.992563 217.925859 
L 140.395042 217.925859 
" clip-path="url(#pe68036ae6f)" style="fill: none; stroke-dasharray: 1.85,0.8; stroke-dashoffset: 0; stroke: #000000; stroke-opacity: 0.15; stroke-width: 0.5"/>
     </g>
     <g id="line2d_50">
      <path d="M 35.992563 217.925859 
" style="fill: none; stroke: #333333; stroke-width: 1.5; stroke-linecap: round"/>
      <g>
       <use xlink:href="#m40f61877b6" x="35.992563" y="217.925859" style="fill: #333333; stroke: #333333"/>
      </g>
     </g>
     <g id="text_9">
      <text style="font-size: 8.8px; font-family: 'Georgia'; text-anchor: end; fill: #4d4d4d" x="31.242563" y="221.251984" transform="rotate(-0 31.242563 221.251984)">-50</text>
     </g>
    </g>
    <g id="ytick_26">
     <g id="line2d_51">
      <path d="M 35.992563 198.047712 
L 140.395042 198.047712 
" clip-path="url(#pe68036ae6f)" style="fill: none; stroke-dasharray: 1.85,0.8; stroke-dashoffset: 0; stroke: #000000; stroke-opacity: 0.15; stroke-width: 0.5"/>
     </g>
     <g id="line2d_52">
      <path d="M 35.992563 198.047712 
" style="fill: none; stroke: #333333; stroke-width: 1.5; stroke-linecap: round"/>
      <g>
       <use xlink:href="#m40f61877b6" x="35.992563" y="198.047712" style="fill: #333333; stroke: #333333"/>
      </g>
     </g>
     <g id="text_10">
      <text style="font-size: 8.8px; font-family: 'Georgia'; text-anchor: end; fill: #4d4d4d" x="31.242563" y="201.373837" transform="rotate(-0 31.242563 201.373837)">-25</text>
     </g>
    </g>
    <g id="ytick_27">
     <g id="line2d_53">
      <path d="M 35.992563 178.169565 
L 140.395042 178.169565 
" clip-path="url(#pe68036ae6f)" style="fill: none; stroke-dasharray: 1.85,0.8; stroke-dashoffset: 0; stroke: #000000; stroke-opacity: 0.15; stroke-width: 0.5"/>
     </g>
     <g id="line2d_54">
      <path d="M 35.992563 178.169565 
" style="fill: none; stroke: #333333; stroke-width: 1.5; stroke-linecap: round"/>
      <g>
       <use xlink:href="#m40f61877b6" x="35.992563" y="178.169565" style="fill: #333333; stroke: #333333"/>
      </g>
     </g>
     <g id="text_11">
      <text style="font-size: 8.8px; font-family: 'Georgia'; text-anchor: end; fill: #4d4d4d" x="31.242563" y="181.49569" transform="rotate(-0 31.242563 181.49569)">0</text>
     </g>
    </g>
    <g id="ytick_28">
     <g id="line2d_55">
      <path d="M 35.992563 158.291418 
L 140.395042 158.291418 
" clip-path="url(#pe68036ae6f)" style="fill: none; stroke-dasharray: 1.85,0.8; stroke-dashoffset: 0; stroke: #000000; stroke-opacity: 0.15; stroke-width: 0.5"/>
     </g>
     <g id="line2d_56">
      <path d="M 35.992563 158.291418 
" style="fill: none; stroke: #333333; stroke-width: 1.5; stroke-linecap: round"/>
      <g>
       <use xlink:href="#m40f61877b6" x="35.992563" y="158.291418" style="fill: #333333; stroke: #333333"/>
      </g>
     </g>
     <g id="text_12">
      <text style="font-size: 8.8px; font-family: 'Georgia'; text-anchor: end; fill: #4d4d4d" x="31.242563" y="161.617543" transform="rotate(-0 31.242563 161.617543)">25</text>
     </g>
    </g>
    <g id="ytick_29"/>
    <g id="ytick_30"/>
    <g id="ytick_31"/>
    <g id="ytick_32"/>
   </g>
   <g id="line2d_57">
    <path d="M 40.73813 176.579313 
L 42.244659 176.579313 
L 43.751188 176.579313 
L 45.257718 176.579313 
L 46.764247 177.374439 
L 48.270776 177.374439 
L 49.777305 176.579313 
L 51.283835 176.579313 
L 52.790364 176.579313 
L 54.296893 175.784187 
L 55.803423 174.989062 
L 57.309952 175.784187 
L 58.816481 177.374439 
L 60.32301 180.554943 
L 61.82954 182.94032 
L 63.336069 177.374439 
L 64.842598 171.808558 
L 66.349128 172.603684 
L 67.855657 174.989062 
L 69.362186 174.989062 
L 70.868715 178.169565 
L 72.375245 174.989062 
L 73.881774 171.013432 
L 75.388303 159.88167 
L 76.894832 151.135285 
L 78.401362 155.90604 
L 79.907891 160.676796 
L 81.41442 168.628054 
L 82.92095 179.759817 
L 84.427479 173.39881 
L 85.934008 171.013432 
L 87.440537 176.579313 
L 88.947067 186.91595 
L 90.453596 171.808558 
L 91.960125 159.88167 
L 93.466655 171.808558 
L 94.973184 185.325698 
L 96.479713 178.169565 
L 97.986242 178.169565 
L 99.492772 176.579313 
L 100.999301 179.759817 
L 102.50583 173.39881 
L 104.01236 167.037803 
L 105.518889 174.989062 
L 107.025418 184.530572 
L 108.531947 178.964691 
L 110.038477 173.39881 
L 111.545006 174.193936 
L 113.051535 173.39881 
L 114.558064 175.784187 
L 116.064594 175.784187 
L 117.571123 178.169565 
L 119.077652 177.374439 
L 120.584182 175.784187 
L 122.090711 175.784187 
L 123.59724 174.193936 
L 125.103769 170.218306 
L 126.610299 179.759817 
L 128.116828 188.506202 
L 129.623357 178.964691 
L 131.129887 171.808558 
L 132.636416 174.989062 
L 134.142945 179.759817 
L 135.649474 175.784187 
" clip-path="url(#pe68036ae6f)" style="fill: none; stroke: #db5f57; stroke-width: 0.886227"/>
   </g>
   <g id="line2d_58">
    <path d="M 40.73813 176.579313 
L 42.244659 177.374439 
L 43.751188 176.579313 
L 45.257718 177.374439 
L 46.764247 177.374439 
L 48.270776 177.374439 
L 49.777305 178.169565 
L 51.283835 176.579313 
L 52.790364 176.579313 
L 54.296893 176.579313 
L 55.803423 177.374439 
L 57.309952 178.964691 
L 58.816481 182.94032 
L 60.32301 178.964691 
L 61.82954 178.169565 
L 63.336069 174.989062 
L 64.842598 174.989062 
L 66.349128 174.989062 
L 67.855657 175.784187 
L 69.362186 180.554943 
L 70.868715 186.120824 
L 72.375245 177.374439 
L 73.881774 172.603684 
L 75.388303 167.832929 
L 76.894832 162.267047 
L 78.401362 164.652425 
L 79.907891 167.832929 
L 81.41442 178.169565 
L 82.92095 189.301327 
L 84.427479 177.374439 
L 85.934008 174.193936 
L 87.440537 177.374439 
L 88.947067 183.735446 
L 90.453596 171.013432 
L 91.960125 163.857299 
L 93.466655 177.374439 
L 94.973184 193.276957 
L 96.479713 179.759817 
L 97.986242 173.39881 
L 99.492772 173.39881 
L 100.999301 179.759817 
L 102.50583 173.39881 
L 104.01236 167.832929 
L 105.518889 176.579313 
L 107.025418 186.120824 
L 108.531947 179.759817 
L 110.038477 172.603684 
L 111.545006 173.39881 
L 113.051535 174.193936 
L 114.558064 175.784187 
L 116.064594 178.964691 
L 117.571123 178.964691 
L 119.077652 176.579313 
L 120.584182 177.374439 
L 122.090711 178.169565 
L 123.59724 174.989062 
L 125.103769 169.42318 
L 126.610299 178.169565 
L 128.116828 189.301327 
L 129.623357 178.964691 
L 131.129887 173.39881 
L 132.636416 175.784187 
L 134.142945 179.759817 
L 135.649474 175.784187 
" clip-path="url(#pe68036ae6f)" style="fill: none; stroke: #91db57; stroke-width: 0.886227"/>
   </g>
   <g id="line2d_59">
    <path d="M 40.73813 176.579313 
L 42.244659 176.579313 
L 43.751188 178.169565 
L 45.257718 178.169565 
L 46.764247 177.374439 
L 48.270776 177.374439 
L 49.777305 178.169565 
L 51.283835 177.374439 
L 52.790364 175.784187 
L 54.296893 175.784187 
L 55.803423 175.784187 
L 57.309952 179.759817 
L 58.816481 185.325698 
L 60.32301 177.374439 
L 61.82954 173.39881 
L 63.336069 174.193936 
L 64.842598 176.579313 
L 66.349128 177.374439 
L 67.855657 177.374439 
L 69.362186 182.145194 
L 70.868715 190.891579 
L 72.375245 180.554943 
L 73.881774 181.350069 
L 75.388303 174.193936 
L 76.894832 168.628054 
L 78.401362 174.193936 
L 79.907891 176.579313 
L 81.41442 184.530572 
L 82.92095 194.867209 
L 84.427479 176.579313 
L 85.934008 171.808558 
L 87.440537 178.964691 
L 88.947067 191.686705 
L 90.453596 175.784187 
L 91.960125 163.062173 
L 93.466655 177.374439 
L 94.973184 198.047712 
L 96.479713 176.579313 
L 97.986242 162.267047 
L 99.492772 174.989062 
L 100.999301 192.481831 
L 102.50583 176.579313 
L 104.01236 163.062173 
L 105.518889 178.169565 
L 107.025418 196.45746 
L 108.531947 178.169565 
L 110.038477 162.267047 
L 111.545006 170.218306 
L 113.051535 178.964691 
L 114.558064 179.759817 
L 116.064594 178.169565 
L 117.571123 177.374439 
L 119.077652 174.989062 
L 120.584182 175.784187 
L 122.090711 178.964691 
L 123.59724 174.193936 
L 125.103769 168.628054 
L 126.610299 181.350069 
L 128.116828 193.276957 
L 129.623357 179.759817 
L 131.129887 168.628054 
L 132.636416 174.193936 
L 134.142945 182.94032 
L 135.649474 175.784187 
" clip-path="url(#pe68036ae6f)" style="fill: none; stroke: #57d3db; stroke-width: 0.886227"/>
   </g>
   <g id="line2d_60">
    <path d="M 40.73813 177.374439 
L 42.244659 176.579313 
L 43.751188 178.169565 
L 45.257718 177.374439 
L 46.764247 178.169565 
L 48.270776 177.374439 
L 49.777305 177.374439 
L 51.283835 177.374439 
L 52.790364 176.579313 
L 54.296893 176.579313 
L 55.803423 177.374439 
L 57.309952 179.759817 
L 58.816481 184.530572 
L 60.32301 177.374439 
L 61.82954 173.39881 
L 63.336069 174.989062 
L 64.842598 178.964691 
L 66.349128 178.169565 
L 67.855657 176.579313 
L 69.362186 181.350069 
L 70.868715 186.120824 
L 72.375245 174.193936 
L 73.881774 167.037803 
L 75.388303 168.628054 
L 76.894832 171.808558 
L 78.401362 171.013432 
L 79.907891 172.603684 
L 81.41442 178.964691 
L 82.92095 189.301327 
L 84.427479 174.193936 
L 85.934008 161.471921 
L 87.440537 175.784187 
L 88.947067 190.096453 
L 90.453596 176.579313 
L 91.960125 162.267047 
L 93.466655 174.193936 
L 94.973184 186.91595 
L 96.479713 176.579313 
L 97.986242 165.447551 
L 99.492772 174.193936 
L 100.999301 182.94032 
L 102.50583 178.964691 
L 104.01236 174.989062 
L 105.518889 177.374439 
L 107.025418 178.169565 
L 108.531947 176.579313 
L 110.038477 174.989062 
L 111.545006 173.39881 
L 113.051535 173.39881 
L 114.558064 180.554943 
L 116.064594 189.301327 
L 117.571123 177.374439 
L 119.077652 167.037803 
L 120.584182 174.193936 
L 122.090711 181.350069 
L 123.59724 176.579313 
L 125.103769 170.218306 
L 126.610299 178.964691 
L 128.116828 189.301327 
L 129.623357 178.169565 
L 131.129887 168.628054 
L 132.636416 173.39881 
L 134.142945 178.964691 
L 135.649474 176.579313 
" clip-path="url(#pe68036ae6f)" style="fill: none; stroke: #a157db; stroke-width: 0.886227"/>
   </g>
  </g>
  <g id="axes_5">
   <g id="patch_6">
    <path d="M 143.995042 220.788312 
L 248.397521 220.788312 
L 248.397521 140.321573 
L 143.995042 140.321573 
z
" style="fill: #ffffff"/>
   </g>
   <g id="matplotlib.axis_9">
    <g id="xtick_29">
     <g id="line2d_61">
      <path d="M 148.740609 220.788312 
L 148.740609 140.321573 
" clip-path="url(#pde5c3e6422)" style="fill: none; stroke-dasharray: 1.85,0.8; stroke-dashoffset: 0; stroke: #000000; stroke-opacity: 0.15; stroke-width: 0.5"/>
     </g>
     <g id="line2d_62">
      <path d="M 148.740609 220.788312 
" style="fill: none; stroke: #333333; stroke-width: 1.5; stroke-linecap: round"/>
      <g>
       <use xlink:href="#m9201bac073" x="148.740609" y="220.788312" style="fill: #333333; stroke: #333333"/>
      </g>
     </g>
     <g id="text_13">
      <text style="font-size: 8.8px; font-family: 'Georgia'; text-anchor: middle; fill: #4d4d4d" x="148.740609" y="232.190562" transform="rotate(-0 148.740609 232.190562)">0</text>
     </g>
    </g>
    <g id="xtick_30">
     <g id="line2d_63">
      <path d="M 178.871195 220.788312 
L 178.871195 140.321573 
" clip-path="url(#pde5c3e6422)" style="fill: none; stroke-dasharray: 1.85,0.8; stroke-dashoffset: 0; stroke: #000000; stroke-opacity: 0.15; stroke-width: 0.5"/>
     </g>
     <g id="line2d_64">
      <path d="M 178.871195 220.788312 
" style="fill: none; stroke: #333333; stroke-width: 1.5; stroke-linecap: round"/>
      <g>
       <use xlink:href="#m9201bac073" x="178.871195" y="220.788312" style="fill: #333333; stroke: #333333"/>
      </g>
     </g>
     <g id="text_14">
      <text style="font-size: 8.8px; font-family: 'Georgia'; text-anchor: middle; fill: #4d4d4d" x="178.871195" y="232.190562" transform="rotate(-0 178.871195 232.190562)">20</text>
     </g>
    </g>
    <g id="xtick_31">
     <g id="line2d_65">
      <path d="M 209.00178 220.788312 
L 209.00178 140.321573 
" clip-path="url(#pde5c3e6422)" style="fill: none; stroke-dasharray: 1.85,0.8; stroke-dashoffset: 0; stroke: #000000; stroke-opacity: 0.15; stroke-width: 0.5"/>
     </g>
     <g id="line2d_66">
      <path d="M 209.00178 220.788312 
" style="fill: none; stroke: #333333; stroke-width: 1.5; stroke-linecap: round"/>
      <g>
       <use xlink:href="#m9201bac073" x="209.00178" y="220.788312" style="fill: #333333; stroke: #333333"/>
      </g>
     </g>
     <g id="text_15">
      <text style="font-size: 8.8px; font-family: 'Georgia'; text-anchor: middle; fill: #4d4d4d" x="209.00178" y="232.190562" transform="rotate(-0 209.00178 232.190562)">40</text>
     </g>
    </g>
    <g id="xtick_32">
     <g id="line2d_67">
      <path d="M 239.132366 220.788312 
L 239.132366 140.321573 
" clip-path="url(#pde5c3e6422)" style="fill: none; stroke-dasharray: 1.85,0.8; stroke-dashoffset: 0; stroke: #000000; stroke-opacity: 0.15; stroke-width: 0.5"/>
     </g>
     <g id="line2d_68">
      <path d="M 239.132366 220.788312 
" style="fill: none; stroke: #333333; stroke-width: 1.5; stroke-linecap: round"/>
      <g>
       <use xlink:href="#m9201bac073" x="239.132366" y="220.788312" style="fill: #333333; stroke: #333333"/>
      </g>
     </g>
     <g id="text_16">
      <text style="font-size: 8.8px; font-family: 'Georgia'; text-anchor: middle; fill: #4d4d4d" x="239.132366" y="232.190562" transform="rotate(-0 239.132366 232.190562)">60</text>
     </g>
    </g>
    <g id="xtick_33"/>
    <g id="xtick_34"/>
    <g id="xtick_35"/>
   </g>
   <g id="matplotlib.axis_10">
    <g id="ytick_33">
     <g id="line2d_69">
      <path d="M 143.995042 217.925859 
L 248.397521 217.925859 
" clip-path="url(#pde5c3e6422)" style="fill: none; stroke-dasharray: 1.85,0.8; stroke-dashoffset: 0; stroke: #000000; stroke-opacity: 0.15; stroke-width: 0.5"/>
     </g>
    </g>
    <g id="ytick_34">
     <g id="line2d_70">
      <path d="M 143.995042 198.047712 
L 248.397521 198.047712 
" clip-path="url(#pde5c3e6422)" style="fill: none; stroke-dasharray: 1.85,0.8; stroke-dashoffset: 0; stroke: #000000; stroke-opacity: 0.15; stroke-width: 0.5"/>
     </g>
    </g>
    <g id="ytick_35">
     <g id="line2d_71">
      <path d="M 143.995042 178.169565 
L 248.397521 178.169565 
" clip-path="url(#pde5c3e6422)" style="fill: none; stroke-dasharray: 1.85,0.8; stroke-dashoffset: 0; stroke: #000000; stroke-opacity: 0.15; stroke-width: 0.5"/>
     </g>
    </g>
    <g id="ytick_36">
     <g id="line2d_72">
      <path d="M 143.995042 158.291418 
L 248.397521 158.291418 
" clip-path="url(#pde5c3e6422)" style="fill: none; stroke-dasharray: 1.85,0.8; stroke-dashoffset: 0; stroke: #000000; stroke-opacity: 0.15; stroke-width: 0.5"/>
     </g>
    </g>
    <g id="ytick_37"/>
    <g id="ytick_38"/>
    <g id="ytick_39"/>
    <g id="ytick_40"/>
   </g>
   <g id="line2d_73">
    <path d="M 148.740609 177.374439 
L 150.247138 176.976876 
L 151.753667 177.374439 
L 153.260197 177.374439 
L 154.766726 176.579313 
L 156.273255 177.374439 
L 157.779785 177.772002 
L 159.286314 177.374439 
L 160.792843 178.169565 
L 162.299372 177.374439 
L 163.805902 178.169565 
L 165.312431 176.579313 
L 166.81896 176.579313 
L 168.32549 174.193936 
L 169.832019 174.193936 
L 171.338548 178.169565 
L 172.845077 184.530572 
L 174.351607 178.169565 
L 175.858136 173.39881 
L 177.364665 174.989062 
L 178.871195 178.169565 
L 180.377724 173.39881 
L 181.884253 170.218306 
L 183.390782 163.857299 
L 184.897312 162.267047 
L 186.403841 154.315788 
L 187.91037 154.315788 
L 189.416899 155.110914 
L 190.923429 163.857299 
L 192.429958 165.447551 
L 193.936487 168.628054 
L 195.443017 168.628054 
L 196.949546 165.447551 
L 198.456075 174.193936 
L 199.962604 177.374439 
L 201.469134 178.169565 
L 202.975663 176.579313 
L 204.482192 173.39881 
L 205.988722 170.218306 
L 207.495251 174.989062 
L 209.00178 178.964691 
L 210.508309 176.579313 
L 212.014839 173.39881 
L 213.521368 175.784187 
L 215.027897 178.169565 
L 216.534427 177.374439 
L 218.040956 178.169565 
L 219.547485 174.989062 
L 221.054014 171.808558 
L 222.560544 176.579313 
L 224.067073 182.94032 
L 225.573602 178.169565 
L 227.080132 173.39881 
L 228.586661 176.579313 
L 230.09319 179.759817 
L 231.599719 174.989062 
L 233.106249 170.218306 
L 234.612778 176.579313 
L 236.119307 182.94032 
L 237.625836 178.964691 
L 239.132366 174.989062 
L 240.638895 177.374439 
L 242.145424 178.964691 
L 243.651954 176.579313 
" clip-path="url(#pde5c3e6422)" style="fill: none; stroke: #db5f57; stroke-width: 0.886227"/>
   </g>
   <g id="line2d_74">
    <path d="M 148.740609 178.169565 
L 150.247138 177.374439 
L 151.753667 176.579313 
L 153.260197 177.374439 
L 154.766726 178.169565 
L 156.273255 177.374439 
L 157.779785 176.579313 
L 159.286314 177.374439 
L 160.792843 178.169565 
L 162.299372 176.579313 
L 163.805902 176.579313 
L 165.312431 176.579313 
L 166.81896 176.579313 
L 168.32549 176.579313 
L 169.832019 177.374439 
L 171.338548 178.964691 
L 172.845077 180.554943 
L 174.351607 177.374439 
L 175.858136 173.39881 
L 177.364665 175.784187 
L 178.871195 178.964691 
L 180.377724 174.989062 
L 181.884253 171.808558 
L 183.390782 172.603684 
L 184.897312 173.39881 
L 186.403841 170.218306 
L 187.91037 170.218306 
L 189.416899 171.013432 
L 190.923429 170.218306 
L 192.429958 172.603684 
L 193.936487 172.603684 
L 195.443017 171.808558 
L 196.949546 169.42318 
L 198.456075 176.579313 
L 199.962604 183.735446 
L 201.469134 178.964691 
L 202.975663 176.579313 
L 204.482192 174.989062 
L 205.988722 173.39881 
L 207.495251 175.386624 
L 209.00178 175.784187 
L 210.508309 176.579313 
L 212.014839 175.784187 
L 213.521368 177.374439 
L 215.027897 178.964691 
L 216.534427 178.964691 
L 218.040956 178.169565 
L 219.547485 174.989062 
L 221.054014 171.808558 
L 222.560544 175.784187 
L 224.067073 182.145194 
L 225.573602 178.169565 
L 227.080132 175.784187 
L 228.586661 176.579313 
L 230.09319 178.964691 
L 231.599719 174.989062 
L 233.106249 173.39881 
L 234.612778 176.579313 
L 236.119307 182.145194 
L 237.625836 177.374439 
L 239.132366 173.39881 
L 240.638895 176.579313 
L 242.145424 179.759817 
L 243.651954 176.579313 
" clip-path="url(#pde5c3e6422)" style="fill: none; stroke: #91db57; stroke-width: 0.886227"/>
   </g>
   <g id="line2d_75">
    <path d="M 148.740609 178.169565 
L 150.247138 177.374439 
L 151.753667 176.579313 
L 153.260197 176.579313 
L 154.766726 177.772002 
L 156.273255 176.579313 
L 157.779785 176.579313 
L 159.286314 177.374439 
L 160.792843 179.362254 
L 162.299372 176.579313 
L 163.805902 174.989062 
L 165.312431 176.579313 
L 166.81896 177.374439 
L 168.32549 177.374439 
L 169.832019 177.772002 
L 171.338548 179.759817 
L 172.845077 182.94032 
L 174.351607 176.579313 
L 175.858136 171.013432 
L 177.364665 177.374439 
L 178.871195 182.94032 
L 180.377724 176.579313 
L 181.884253 170.218306 
L 183.390782 175.784187 
L 184.897312 182.145194 
L 186.403841 178.169565 
L 187.91037 175.386624 
L 189.416899 177.374439 
L 190.923429 178.964691 
L 192.429958 176.579313 
L 193.936487 163.857299 
L 195.443017 172.603684 
L 196.949546 171.013432 
L 198.456075 179.759817 
L 199.962604 186.91595 
L 201.469134 180.554943 
L 202.975663 176.976876 
L 204.482192 175.784187 
L 205.988722 174.989062 
L 207.495251 174.989062 
L 209.00178 174.989062 
L 210.508309 176.579313 
L 212.014839 180.554943 
L 213.521368 177.374439 
L 215.027897 176.18175 
L 216.534427 181.350069 
L 218.040956 187.711076 
L 219.547485 174.193936 
L 221.054014 159.086544 
L 222.560544 175.784187 
L 224.067073 193.276957 
L 225.573602 181.350069 
L 227.080132 170.218306 
L 228.586661 176.976876 
L 230.09319 182.94032 
L 231.599719 174.193936 
L 233.106249 167.037803 
L 234.612778 178.169565 
L 236.119307 190.891579 
L 237.625836 178.169565 
L 239.132366 165.447551 
L 240.638895 175.784187 
L 242.145424 186.91595 
L 243.651954 178.567128 
" clip-path="url(#pde5c3e6422)" style="fill: none; stroke: #57d3db; stroke-width: 0.886227"/>
   </g>
   <g id="line2d_76">
    <path d="M 148.740609 177.374439 
L 150.247138 177.374439 
L 151.753667 177.374439 
L 153.260197 177.374439 
L 154.766726 178.169565 
L 156.273255 176.579313 
L 157.779785 176.579313 
L 159.286314 177.374439 
L 160.792843 178.169565 
L 162.299372 176.579313 
L 163.805902 176.579313 
L 165.312431 176.579313 
L 166.81896 177.374439 
L 168.32549 177.374439 
L 169.832019 178.169565 
L 171.338548 178.169565 
L 172.845077 178.964691 
L 174.351607 175.784187 
L 175.858136 173.39881 
L 177.364665 176.579313 
L 178.871195 180.554943 
L 180.377724 177.374439 
L 181.884253 172.603684 
L 183.390782 172.603684 
L 184.897312 174.193936 
L 186.403841 174.193936 
L 187.91037 176.579313 
L 189.416899 174.193936 
L 190.923429 172.603684 
L 192.429958 175.784187 
L 193.936487 176.579313 
L 195.443017 171.808558 
L 196.949546 164.652425 
L 198.456075 176.579313 
L 199.962604 190.891579 
L 201.469134 179.759817 
L 202.975663 169.025617 
L 204.482192 174.193936 
L 205.988722 178.567128 
L 207.495251 176.579313 
L 209.00178 174.989062 
L 210.508309 174.193936 
L 212.014839 174.989062 
L 213.521368 178.567128 
L 215.027897 182.94032 
L 216.534427 178.964691 
L 218.040956 176.579313 
L 219.547485 174.193936 
L 221.054014 171.808558 
L 222.560544 176.579313 
L 224.067073 182.94032 
L 225.573602 179.759817 
L 227.080132 176.579313 
L 228.586661 175.784187 
L 230.09319 173.39881 
L 231.599719 174.989062 
L 233.106249 176.18175 
L 234.612778 177.374439 
L 236.119307 179.759817 
L 237.625836 177.374439 
L 239.132366 174.989062 
L 240.638895 176.579313 
L 242.145424 178.169565 
L 243.651954 176.579313 
" clip-path="url(#pde5c3e6422)" style="fill: none; stroke: #a157db; stroke-width: 0.886227"/>
   </g>
  </g>
  <g id="axes_6">
   <g id="patch_7">
    <path d="M 251.997521 220.788312 
L 356.4 220.788312 
L 356.4 140.321573 
L 251.997521 140.321573 
z
" style="fill: #ffffff"/>
   </g>
   <g id="matplotlib.axis_11">
    <g id="xtick_36">
     <g id="line2d_77">
      <path d="M 256.743088 220.788312 
L 256.743088 140.321573 
" clip-path="url(#p9e8f582768)" style="fill: none; stroke-dasharray: 1.85,0.8; stroke-dashoffset: 0; stroke: #000000; stroke-opacity: 0.15; stroke-width: 0.5"/>
     </g>
     <g id="line2d_78">
      <path d="M 256.743088 220.788312 
" style="fill: none; stroke: #333333; stroke-width: 1.5; stroke-linecap: round"/>
      <g>
       <use xlink:href="#m9201bac073" x="256.743088" y="220.788312" style="fill: #333333; stroke: #333333"/>
      </g>
     </g>
     <g id="text_17">
      <text style="font-size: 8.8px; font-family: 'Georgia'; text-anchor: middle; fill: #4d4d4d" x="256.743088" y="232.190562" transform="rotate(-0 256.743088 232.190562)">0</text>
     </g>
    </g>
    <g id="xtick_37">
     <g id="line2d_79">
      <path d="M 286.873674 220.788312 
L 286.873674 140.321573 
" clip-path="url(#p9e8f582768)" style="fill: none; stroke-dasharray: 1.85,0.8; stroke-dashoffset: 0; stroke: #000000; stroke-opacity: 0.15; stroke-width: 0.5"/>
     </g>
     <g id="line2d_80">
      <path d="M 286.873674 220.788312 
" style="fill: none; stroke: #333333; stroke-width: 1.5; stroke-linecap: round"/>
      <g>
       <use xlink:href="#m9201bac073" x="286.873674" y="220.788312" style="fill: #333333; stroke: #333333"/>
      </g>
     </g>
     <g id="text_18">
      <text style="font-size: 8.8px; font-family: 'Georgia'; text-anchor: middle; fill: #4d4d4d" x="286.873674" y="232.190562" transform="rotate(-0 286.873674 232.190562)">20</text>
     </g>
    </g>
    <g id="xtick_38">
     <g id="line2d_81">
      <path d="M 317.004259 220.788312 
L 317.004259 140.321573 
" clip-path="url(#p9e8f582768)" style="fill: none; stroke-dasharray: 1.85,0.8; stroke-dashoffset: 0; stroke: #000000; stroke-opacity: 0.15; stroke-width: 0.5"/>
     </g>
     <g id="line2d_82">
      <path d="M 317.004259 220.788312 
" style="fill: none; stroke: #333333; stroke-width: 1.5; stroke-linecap: round"/>
      <g>
       <use xlink:href="#m9201bac073" x="317.004259" y="220.788312" style="fill: #333333; stroke: #333333"/>
      </g>
     </g>
     <g id="text_19">
      <text style="font-size: 8.8px; font-family: 'Georgia'; text-anchor: middle; fill: #4d4d4d" x="317.004259" y="232.190562" transform="rotate(-0 317.004259 232.190562)">40</text>
     </g>
    </g>
    <g id="xtick_39">
     <g id="line2d_83">
      <path d="M 347.134845 220.788312 
L 347.134845 140.321573 
" clip-path="url(#p9e8f582768)" style="fill: none; stroke-dasharray: 1.85,0.8; stroke-dashoffset: 0; stroke: #000000; stroke-opacity: 0.15; stroke-width: 0.5"/>
     </g>
     <g id="line2d_84">
      <path d="M 347.134845 220.788312 
" style="fill: none; stroke: #333333; stroke-width: 1.5; stroke-linecap: round"/>
      <g>
       <use xlink:href="#m9201bac073" x="347.134845" y="220.788312" style="fill: #333333; stroke: #333333"/>
      </g>
     </g>
     <g id="text_20">
      <text style="font-size: 8.8px; font-family: 'Georgia'; text-anchor: middle; fill: #4d4d4d" x="347.134845" y="232.190562" transform="rotate(-0 347.134845 232.190562)">60</text>
     </g>
    </g>
    <g id="xtick_40"/>
    <g id="xtick_41"/>
    <g id="xtick_42"/>
   </g>
   <g id="matplotlib.axis_12">
    <g id="ytick_41">
     <g id="line2d_85">
      <path d="M 251.997521 217.925859 
L 356.4 217.925859 
" clip-path="url(#p9e8f582768)" style="fill: none; stroke-dasharray: 1.85,0.8; stroke-dashoffset: 0; stroke: #000000; stroke-opacity: 0.15; stroke-width: 0.5"/>
     </g>
    </g>
    <g id="ytick_42">
     <g id="line2d_86">
      <path d="M 251.997521 198.047712 
L 356.4 198.047712 
" clip-path="url(#p9e8f582768)" style="fill: none; stroke-dasharray: 1.85,0.8; stroke-dashoffset: 0; stroke: #000000; stroke-opacity: 0.15; stroke-width: 0.5"/>
     </g>
    </g>
    <g id="ytick_43">
     <g id="line2d_87">
      <path d="M 251.997521 178.169565 
L 356.4 178.169565 
" clip-path="url(#p9e8f582768)" style="fill: none; stroke-dasharray: 1.85,0.8; stroke-dashoffset: 0; stroke: #000000; stroke-opacity: 0.15; stroke-width: 0.5"/>
     </g>
    </g>
    <g id="ytick_44">
     <g id="line2d_88">
      <path d="M 251.997521 158.291418 
L 356.4 158.291418 
" clip-path="url(#p9e8f582768)" style="fill: none; stroke-dasharray: 1.85,0.8; stroke-dashoffset: 0; stroke: #000000; stroke-opacity: 0.15; stroke-width: 0.5"/>
     </g>
    </g>
    <g id="ytick_45"/>
    <g id="ytick_46"/>
    <g id="ytick_47"/>
    <g id="ytick_48"/>
   </g>
   <g id="line2d_89">
    <path d="M 256.743088 176.579313 
L 258.249617 177.374439 
L 259.756147 177.374439 
L 261.262676 177.374439 
L 262.769205 178.169565 
L 264.275734 177.374439 
L 265.782264 176.579313 
L 267.288793 177.374439 
L 268.795322 177.374439 
L 270.301852 176.579313 
L 271.808381 176.579313 
L 273.31491 177.374439 
L 274.821439 178.964691 
L 276.327969 179.759817 
L 277.834498 178.169565 
L 279.341027 175.784187 
L 280.847557 171.808558 
L 282.354086 173.39881 
L 283.860615 174.193936 
L 285.367144 178.169565 
L 286.873674 184.530572 
L 288.380203 173.39881 
L 289.886732 167.037803 
L 291.393262 157.496292 
L 292.899791 151.135285 
L 294.40632 155.110914 
L 295.912849 162.267047 
L 297.419379 170.218306 
L 298.925908 182.94032 
L 300.432437 172.603684 
L 301.938966 161.471921 
L 303.445496 171.013432 
L 304.952025 184.530572 
L 306.458554 171.808558 
L 307.965084 162.267047 
L 309.471613 176.579313 
L 310.978142 191.686705 
L 312.484671 177.374439 
L 313.991201 163.857299 
L 315.49773 172.603684 
L 317.004259 179.759817 
L 318.510789 174.989062 
L 320.017318 171.013432 
L 321.523847 177.374439 
L 323.030376 185.325698 
L 324.536906 177.374439 
L 326.043435 170.218306 
L 327.549964 172.603684 
L 329.056494 173.39881 
L 330.563023 176.579313 
L 332.069552 182.145194 
L 333.576081 178.964691 
L 335.082611 176.579313 
L 336.58914 176.579313 
L 338.095669 176.579313 
L 339.602199 173.39881 
L 341.108728 169.42318 
L 342.615257 179.759817 
L 344.121786 190.891579 
L 345.628316 178.964691 
L 347.134845 168.628054 
L 348.641374 174.989062 
L 350.147903 181.350069 
L 351.654433 174.989062 
" clip-path="url(#p9e8f582768)" style="fill: none; stroke: #db5f57; stroke-width: 0.886227"/>
   </g>
   <g id="line2d_90">
    <path d="M 256.743088 176.579313 
L 258.249617 177.374439 
L 259.756147 178.169565 
L 261.262676 177.374439 
L 262.769205 178.169565 
L 264.275734 177.374439 
L 265.782264 176.579313 
L 267.288793 176.579313 
L 268.795322 178.169565 
L 270.301852 176.579313 
L 271.808381 176.579313 
L 273.31491 178.169565 
L 274.821439 182.145194 
L 276.327969 178.169565 
L 277.834498 175.784187 
L 279.341027 174.193936 
L 280.847557 176.579313 
L 282.354086 176.579313 
L 283.860615 177.374439 
L 285.367144 182.145194 
L 286.873674 186.120824 
L 288.380203 176.579313 
L 289.886732 167.832929 
L 291.393262 165.447551 
L 292.899791 163.857299 
L 294.40632 167.037803 
L 295.912849 172.603684 
L 297.419379 178.964691 
L 298.925908 187.711076 
L 300.432437 178.169565 
L 301.938966 165.447551 
L 303.445496 171.808558 
L 304.952025 184.530572 
L 306.458554 172.603684 
L 307.965084 168.628054 
L 309.471613 180.554943 
L 310.978142 193.276957 
L 312.484671 179.759817 
L 313.991201 163.857299 
L 315.49773 171.013432 
L 317.004259 180.554943 
L 318.510789 175.784187 
L 320.017318 171.808558 
L 321.523847 178.169565 
L 323.030376 186.91595 
L 324.536906 177.374439 
L 326.043435 170.218306 
L 327.549964 171.808558 
L 329.056494 172.603684 
L 330.563023 177.374439 
L 332.069552 181.350069 
L 333.576081 178.169565 
L 335.082611 175.784187 
L 336.58914 177.374439 
L 338.095669 178.169565 
L 339.602199 173.39881 
L 341.108728 167.832929 
L 342.615257 178.169565 
L 344.121786 189.301327 
L 345.628316 178.964691 
L 347.134845 170.218306 
L 348.641374 174.989062 
L 350.147903 181.350069 
L 351.654433 174.989062 
" clip-path="url(#p9e8f582768)" style="fill: none; stroke: #91db57; stroke-width: 0.886227"/>
   </g>
   <g id="line2d_91">
    <path d="M 256.743088 177.374439 
L 258.249617 177.374439 
L 259.756147 178.964691 
L 261.262676 178.169565 
L 262.769205 178.169565 
L 264.275734 177.374439 
L 265.782264 177.374439 
L 267.288793 177.374439 
L 268.795322 177.374439 
L 270.301852 176.579313 
L 271.808381 175.784187 
L 273.31491 179.759817 
L 274.821439 185.325698 
L 276.327969 178.169565 
L 277.834498 170.218306 
L 279.341027 174.193936 
L 280.847557 182.145194 
L 282.354086 176.579313 
L 283.860615 174.193936 
L 285.367144 183.735446 
L 286.873674 192.481831 
L 288.380203 178.964691 
L 289.886732 168.628054 
L 291.393262 170.218306 
L 292.899791 172.603684 
L 294.40632 174.193936 
L 295.912849 174.193936 
L 297.419379 186.120824 
L 298.925908 198.842838 
L 300.432437 175.784187 
L 301.938966 157.496292 
L 303.445496 171.013432 
L 304.952025 194.072083 
L 306.458554 176.579313 
L 307.965084 163.857299 
L 309.471613 182.94032 
L 310.978142 199.637964 
L 312.484671 175.784187 
L 313.991201 152.725537 
L 315.49773 171.808558 
L 317.004259 194.072083 
L 318.510789 179.759817 
L 320.017318 167.037803 
L 321.523847 181.350069 
L 323.030376 196.45746 
L 324.536906 177.374439 
L 326.043435 160.676796 
L 327.549964 169.42318 
L 329.056494 177.374439 
L 330.563023 181.350069 
L 332.069552 185.325698 
L 333.576081 179.759817 
L 335.082611 172.603684 
L 336.58914 175.784187 
L 338.095669 179.759817 
L 339.602199 172.603684 
L 341.108728 164.652425 
L 342.615257 180.554943 
L 344.121786 199.637964 
L 345.628316 179.759817 
L 347.134845 163.857299 
L 348.641374 174.989062 
L 350.147903 186.120824 
L 351.654433 174.989062 
" clip-path="url(#p9e8f582768)" style="fill: none; stroke: #57d3db; stroke-width: 0.886227"/>
   </g>
   <g id="line2d_92">
    <path d="M 256.743088 176.579313 
L 258.249617 176.579313 
L 259.756147 177.374439 
L 261.262676 177.374439 
L 262.769205 177.374439 
L 264.275734 176.579313 
L 265.782264 176.579313 
L 267.288793 176.579313 
L 268.795322 177.374439 
L 270.301852 176.579313 
L 271.808381 175.784187 
L 273.31491 178.964691 
L 274.821439 182.94032 
L 276.327969 177.374439 
L 277.834498 173.39881 
L 279.341027 174.989062 
L 280.847557 180.554943 
L 282.354086 177.374439 
L 283.860615 175.784187 
L 285.367144 181.350069 
L 286.873674 186.120824 
L 288.380203 176.579313 
L 289.886732 165.447551 
L 291.393262 170.218306 
L 292.899791 174.989062 
L 294.40632 172.603684 
L 295.912849 172.603684 
L 297.419379 179.759817 
L 298.925908 190.891579 
L 300.432437 174.989062 
L 301.938966 157.496292 
L 303.445496 172.603684 
L 304.952025 188.506202 
L 306.458554 178.169565 
L 307.965084 168.628054 
L 309.471613 177.374439 
L 310.978142 186.120824 
L 312.484671 176.579313 
L 313.991201 163.857299 
L 315.49773 173.39881 
L 317.004259 183.735446 
L 318.510789 179.759817 
L 320.017318 178.169565 
L 321.523847 177.374439 
L 323.030376 178.169565 
L 324.536906 175.784187 
L 326.043435 174.989062 
L 327.549964 173.39881 
L 329.056494 172.603684 
L 330.563023 180.554943 
L 332.069552 188.506202 
L 333.576081 177.374439 
L 335.082611 167.037803 
L 336.58914 174.989062 
L 338.095669 182.145194 
L 339.602199 175.784187 
L 341.108728 169.42318 
L 342.615257 178.169565 
L 344.121786 189.301327 
L 345.628316 178.169565 
L 347.134845 168.628054 
L 348.641374 174.193936 
L 350.147903 178.169565 
L 351.654433 175.784187 
" clip-path="url(#p9e8f582768)" style="fill: none; stroke: #a157db; stroke-width: 0.886227"/>
   </g>
  </g>
  <g id="patch_8">
   <path d="M 35.992563 122.294156 
L 140.395042 122.294156 
L 140.395042 41.827417 
L 35.992563 41.827417 
L 35.992563 122.294156 
z
" style="fill: none; stroke: #7f7f7f; stroke-linejoin: miter"/>
  </g>
  <g id="patch_9">
   <path d="M 143.995042 122.294156 
L 248.397521 122.294156 
L 248.397521 41.827417 
L 143.995042 41.827417 
L 143.995042 122.294156 
z
" style="fill: none; stroke: #7f7f7f; stroke-linejoin: miter"/>
  </g>
  <g id="patch_10">
   <path d="M 251.997521 122.294156 
L 356.4 122.294156 
L 356.4 41.827417 
L 251.997521 41.827417 
L 251.997521 122.294156 
z
" style="fill: none; stroke: #7f7f7f; stroke-linejoin: miter"/>
  </g>
  <g id="patch_11">
   <path d="M 35.992563 220.788312 
L 140.395042 220.788312 
L 140.395042 140.321573 
L 35.992563 140.321573 
L 35.992563 220.788312 
z
" style="fill: none; stroke: #7f7f7f; stroke-linejoin: miter"/>
  </g>
  <g id="patch_12">
   <path d="M 143.995042 220.788312 
L 248.397521 220.788312 
L 248.397521 140.321573 
L 143.995042 140.321573 
L 143.995042 220.788312 
z
" style="fill: none; stroke: #7f7f7f; stroke-linejoin: miter"/>
  </g>
  <g id="patch_13">
   <path d="M 251.997521 220.788312 
L 356.4 220.788312 
L 356.4 140.321573 
L 251.997521 140.321573 
L 251.997521 220.788312 
z
" style="fill: none; stroke: #7f7f7f; stroke-linejoin: miter"/>
  </g>
  <g id="text_21">
   <text style="font-size: 11px; font-family: 'Georgia'; text-anchor: start" x="172.600422" y="246.014375" transform="rotate(-0 172.600422 246.014375)">Time [ns]</text>
  </g>
  <g id="text_22">
   <text style="font-size: 11px; font-family: 'Georgia'" transform="translate(11.915313 187.327943) rotate(-90)">Median Intensity [a.u.]</text>
  </g>
  <g id="patch_14">
   <path d="M 35.992563 41.827417 
L 140.395042 41.827417 
L 140.395042 27.4 
L 35.992563 27.4 
z
" style="fill: #cccccc; stroke: #7f7f7f; stroke-linejoin: miter"/>
  </g>
  <g id="text_23">
   <text style="font-size: 8.8px; font-family: 'Georgia'; text-anchor: middle; fill: #1a1a1a" x="88.193802" y="37.939833" transform="rotate(-0 88.193802 37.939833)">*Control</text>
  </g>
  <g id="patch_15">
   <path d="M 143.995042 41.827417 
L 248.397521 41.827417 
L 248.397521 27.4 
L 143.995042 27.4 
z
" style="fill: #cccccc; stroke: #7f7f7f; stroke-linejoin: miter"/>
  </g>
  <g id="text_24">
   <text style="font-size: 8.8px; font-family: 'Georgia'; text-anchor: middle; fill: #1a1a1a" x="196.196281" y="37.939833" transform="rotate(-0 196.196281 37.939833)">B. cereus</text>
  </g>
  <g id="patch_16">
   <path d="M 251.997521 41.827417 
L 356.4 41.827417 
L 356.4 27.4 
L 251.997521 27.4 
z
" style="fill: #cccccc; stroke: #7f7f7f; stroke-linejoin: miter"/>
  </g>
  <g id="text_25">
   <text style="font-size: 8.8px; font-family: 'Georgia'; text-anchor: middle; fill: #1a1a1a" x="304.19876" y="37.939833" transform="rotate(-0 304.19876 37.939833)">B. endophyticus</text>
  </g>
  <g id="patch_17">
   <path d="M 35.992563 140.321573 
L 140.395042 140.321573 
L 140.395042 125.894156 
L 35.992563 125.894156 
z
" style="fill: #cccccc; stroke: #7f7f7f; stroke-linejoin: miter"/>
  </g>
  <g id="text_26">
   <text style="font-size: 8.8px; font-family: 'Georgia'; text-anchor: middle; fill: #1a1a1a" x="88.193802" y="136.43399" transform="rotate(-0 88.193802 136.43399)">K. salsicia</text>
  </g>
  <g id="patch_18">
   <path d="M 143.995042 140.321573 
L 248.397521 140.321573 
L 248.397521 125.894156 
L 143.995042 125.894156 
z
" style="fill: #cccccc; stroke: #7f7f7f; stroke-linejoin: miter"/>
  </g>
  <g id="text_27">
   <text style="font-size: 8.8px; font-family: 'Georgia'; text-anchor: middle; fill: #1a1a1a" x="196.196281" y="136.43399" transform="rotate(-0 196.196281 136.43399)">M. luteus</text>
  </g>
  <g id="patch_19">
   <path d="M 251.997521 140.321573 
L 356.4 140.321573 
L 356.4 125.894156 
L 251.997521 125.894156 
z
" style="fill: #cccccc; stroke: #7f7f7f; stroke-linejoin: miter"/>
  </g>
  <g id="text_28">
   <text style="font-size: 8.8px; font-family: 'Georgia'; text-anchor: middle; fill: #1a1a1a" x="304.19876" y="136.43399" transform="rotate(-0 304.19876 136.43399)">S. huminis</text>
  </g>
  <g id="text_29">
   <text style="font-size: 9px; font-family: 'Georgia'; text-anchor: start" x="34.956125" y="12.525781" transform="rotate(-0 34.956125 12.525781)">Wavelength Range</text>
  </g>
  <g id="patch_20">
   <path d="M 115.575188 14.6 
L 124.575188 14.6 
L 124.575188 5.6 
L 115.575188 5.6 
L 115.575188 14.6 
z
" clip-path="url(#pae1c165e59)" style="fill: none; stroke: #cccccc; stroke-linejoin: miter"/>
  </g>
  <g id="line2d_93">
   <path d="M 114.575188 10.1 
L 125.575188 10.1 
" clip-path="url(#pae1c165e59)" style="fill: none; stroke: #db5f57; stroke-width: 0.886227"/>
  </g>
  <g id="text_30">
   <text style="font-size: 8px; font-family: 'Georgia'; text-anchor: middle" x="149.642063" y="12.25625" transform="rotate(-0 149.642063 12.25625)">300-340 nm</text>
  </g>
  <g id="patch_21">
   <path d="M 179.028938 14.6 
L 188.028938 14.6 
L 188.028938 5.6 
L 179.028938 5.6 
L 179.028938 14.6 
z
" clip-path="url(#p5af8b51f46)" style="fill: none; stroke: #cccccc; stroke-linejoin: miter"/>
  </g>
  <g id="line2d_94">
   <path d="M 178.028938 10.1 
L 189.028938 10.1 
" clip-path="url(#p5af8b51f46)" style="fill: none; stroke: #91db57; stroke-width: 0.886227"/>
  </g>
  <g id="text_31">
   <text style="font-size: 8px; font-family: 'Georgia'; text-anchor: middle" x="212.985187" y="12.25625" transform="rotate(-0 212.985187 12.25625)">420-460 nm</text>
  </g>
  <g id="patch_22">
   <path d="M 242.261437 14.6 
L 251.261437 14.6 
L 251.261437 5.6 
L 242.261437 5.6 
L 242.261437 14.6 
z
" clip-path="url(#p2fa809905a)" style="fill: none; stroke: #cccccc; stroke-linejoin: miter"/>
  </g>
  <g id="line2d_95">
   <path d="M 241.261437 10.1 
L 252.261437 10.1 
" clip-path="url(#p2fa809905a)" style="fill: none; stroke: #57d3db; stroke-width: 0.886227"/>
  </g>
  <g id="text_32">
   <text style="font-size: 8px; font-family: 'Georgia'; text-anchor: middle" x="274.197688" y="12.25625" transform="rotate(-0 274.197688 12.25625)">511-572 nm</text>
  </g>
  <g id="patch_23">
   <path d="M 301.453937 14.6 
L 310.453937 14.6 
L 310.453937 5.6 
L 301.453937 5.6 
L 301.453937 14.6 
z
" clip-path="url(#p80a4670964)" style="fill: none; stroke: #cccccc; stroke-linejoin: miter"/>
  </g>
  <g id="line2d_96">
   <path d="M 300.453937 10.1 
L 311.453937 10.1 
" clip-path="url(#p80a4670964)" style="fill: none; stroke: #a157db; stroke-width: 0.886227"/>
  </g>
  <g id="text_33">
   <text style="font-size: 8px; font-family: 'Georgia'; text-anchor: middle" x="335.285188" y="12.25625" transform="rotate(-0 335.285188 12.25625)">672-800 nm</text>
  </g>
 </g>
 <defs>
  <clipPath id="p238ff47106">
   <rect x="35.992563" y="41.827417" width="104.402479" height="80.46674"/>
  </clipPath>
  <clipPath id="p3d715d555d">
   <rect x="143.995042" y="41.827417" width="104.402479" height="80.46674"/>
  </clipPath>
  <clipPath id="paf8e6206df">
   <rect x="251.997521" y="41.827417" width="104.402479" height="80.46674"/>
  </clipPath>
  <clipPath id="pe68036ae6f">
   <rect x="35.992563" y="140.321573" width="104.402479" height="80.46674"/>
  </clipPath>
  <clipPath id="pde5c3e6422">
   <rect x="143.995042" y="140.321573" width="104.402479" height="80.46674"/>
  </clipPath>
  <clipPath id="p9e8f582768">
   <rect x="251.997521" y="140.321573" width="104.402479" height="80.46674"/>
  </clipPath>
  <clipPath id="pae1c165e59">
   <path d="M 114.575188 15.6 
L 114.575188 4.6 
L 125.575188 4.6 
L 125.575188 15.6 
"/>
  </clipPath>
  <clipPath id="p5af8b51f46">
   <path d="M 178.028938 15.6 
L 178.028938 4.6 
L 189.028938 4.6 
L 189.028938 15.6 
"/>
  </clipPath>
  <clipPath id="p2fa809905a">
   <path d="M 241.261437 15.6 
L 241.261437 4.6 
L 252.261437 4.6 
L 252.261437 15.6 
"/>
  </clipPath>
  <clipPath id="p80a4670964">
   <path d="M 300.453937 15.6 
L 300.453937 4.6 
L 311.453937 4.6 
L 311.453937 15.6 
"/>
  </clipPath>
 </defs>
</svg>
