<?xml version="1.0" encoding="utf-8" standalone="no"?>
<!DOCTYPE svg PUBLIC "-//W3C//DTD SVG 1.1//EN"
  "http://www.w3.org/Graphics/SVG/1.1/DTD/svg11.dtd">
<svg xmlns:xlink="http://www.w3.org/1999/xlink" width="252pt" height="180pt" viewBox="0 0 252 180" xmlns="http://www.w3.org/2000/svg" version="1.1">
 <metadata>
  <rdf:RDF xmlns:dc="http://purl.org/dc/elements/1.1/" xmlns:cc="http://creativecommons.org/ns#" xmlns:rdf="http://www.w3.org/1999/02/22-rdf-syntax-ns#">
   <cc:Work>
    <dc:type rdf:resource="http://purl.org/dc/dcmitype/StillImage"/>
    <dc:date>2025-06-06T14:16:50.851201</dc:date>
    <dc:format>image/svg+xml</dc:format>
    <dc:creator>
     <cc:Agent>
      <dc:title>Matplotlib v3.10.3, https://matplotlib.org/</dc:title>
     </cc:Agent>
    </dc:creator>
   </cc:Work>
  </rdf:RDF>
 </metadata>
 <defs>
  <style type="text/css">*{stroke-linejoin: round; stroke-linecap: butt}</style>
 </defs>
 <g id="figure_1">
  <g id="patch_1">
   <path d="M 0 180 
L 252 180 
L 252 0 
L 0 0 
z
" style="fill: #ffffff; stroke: #ffffff; stroke-linejoin: miter"/>
  </g>
  <g id="axes_1">
   <g id="patch_2">
    <path d="M 31.494375 151.726562 
L 244.911875 151.726562 
L 244.911875 5.54375 
L 31.494375 5.54375 
z
" style="fill: #ffffff"/>
   </g>
   <g id="matplotlib.axis_1">
    <g id="xtick_1">
     <g id="line2d_1">
      <path d="M 31.494375 151.726562 
L 31.494375 5.54375 
" clip-path="url(#p0de8a9daf5)" style="fill: none; stroke-dasharray: 1.85,0.8; stroke-dashoffset: 0; stroke: #000000; stroke-opacity: 0.15; stroke-width: 0.5"/>
     </g>
     <g id="line2d_2">
      <path d="M 31.494375 151.726562 
" style="fill: none; stroke: #333333; stroke-width: 1.5; stroke-linecap: round"/>
      <defs>
       <path id="m1060a5ead6" d="M 0 0 
L 0 2.75 
" style="stroke: #333333"/>
      </defs>
      <g>
       <use xlink:href="#m1060a5ead6" x="31.494375" y="151.726562" style="fill: #333333; stroke: #333333"/>
      </g>
     </g>
     <g id="text_1">
      <text style="font-size: 8px; font-family: 'Georgia'; text-anchor: middle; fill: #4d4d4d" x="31.494375" y="162.524063" transform="rotate(-0 31.494375 162.524063)">0</text>
     </g>
    </g>
    <g id="xtick_2">
     <g id="line2d_3">
      <path d="M 74.177875 151.726562 
L 74.177875 5.54375 
" clip-path="url(#p0de8a9daf5)" style="fill: none; stroke-dasharray: 1.85,0.8; stroke-dashoffset: 0; stroke: #000000; stroke-opacity: 0.15; stroke-width: 0.5"/>
     </g>
     <g id="line2d_4">
      <path d="M 74.177875 151.726562 
" style="fill: none; stroke: #333333; stroke-width: 1.5; stroke-linecap: round"/>
      <g>
       <use xlink:href="#m1060a5ead6" x="74.177875" y="151.726562" style="fill: #333333; stroke: #333333"/>
      </g>
     </g>
     <g id="text_2">
      <text style="font-size: 8px; font-family: 'Georgia'; text-anchor: middle; fill: #4d4d4d" x="74.177875" y="162.524063" transform="rotate(-0 74.177875 162.524063)">10</text>
     </g>
    </g>
    <g id="xtick_3">
     <g id="line2d_5">
      <path d="M 116.861375 151.726562 
L 116.861375 5.54375 
" clip-path="url(#p0de8a9daf5)" style="fill: none; stroke-dasharray: 1.85,0.8; stroke-dashoffset: 0; stroke: #000000; stroke-opacity: 0.15; stroke-width: 0.5"/>
     </g>
     <g id="line2d_6">
      <path d="M 116.861375 151.726562 
" style="fill: none; stroke: #333333; stroke-width: 1.5; stroke-linecap: round"/>
      <g>
       <use xlink:href="#m1060a5ead6" x="116.861375" y="151.726562" style="fill: #333333; stroke: #333333"/>
      </g>
     </g>
     <g id="text_3">
      <text style="font-size: 8px; font-family: 'Georgia'; text-anchor: middle; fill: #4d4d4d" x="116.861375" y="162.524063" transform="rotate(-0 116.861375 162.524063)">20</text>
     </g>
    </g>
    <g id="xtick_4">
     <g id="line2d_7">
      <path d="M 159.544875 151.726562 
L 159.544875 5.54375 
" clip-path="url(#p0de8a9daf5)" style="fill: none; stroke-dasharray: 1.85,0.8; stroke-dashoffset: 0; stroke: #000000; stroke-opacity: 0.15; stroke-width: 0.5"/>
     </g>
     <g id="line2d_8">
      <path d="M 159.544875 151.726562 
" style="fill: none; stroke: #333333; stroke-width: 1.5; stroke-linecap: round"/>
      <g>
       <use xlink:href="#m1060a5ead6" x="159.544875" y="151.726562" style="fill: #333333; stroke: #333333"/>
      </g>
     </g>
     <g id="text_4">
      <text style="font-size: 8px; font-family: 'Georgia'; text-anchor: middle; fill: #4d4d4d" x="159.544875" y="162.524063" transform="rotate(-0 159.544875 162.524063)">30</text>
     </g>
    </g>
    <g id="xtick_5">
     <g id="line2d_9">
      <path d="M 202.228375 151.726562 
L 202.228375 5.54375 
" clip-path="url(#p0de8a9daf5)" style="fill: none; stroke-dasharray: 1.85,0.8; stroke-dashoffset: 0; stroke: #000000; stroke-opacity: 0.15; stroke-width: 0.5"/>
     </g>
     <g id="line2d_10">
      <path d="M 202.228375 151.726562 
" style="fill: none; stroke: #333333; stroke-width: 1.5; stroke-linecap: round"/>
      <g>
       <use xlink:href="#m1060a5ead6" x="202.228375" y="151.726562" style="fill: #333333; stroke: #333333"/>
      </g>
     </g>
     <g id="text_5">
      <text style="font-size: 8px; font-family: 'Georgia'; text-anchor: middle; fill: #4d4d4d" x="202.228375" y="162.524063" transform="rotate(-0 202.228375 162.524063)">40</text>
     </g>
    </g>
    <g id="xtick_6">
     <g id="line2d_11">
      <path d="M 244.911875 151.726562 
L 244.911875 5.54375 
" clip-path="url(#p0de8a9daf5)" style="fill: none; stroke-dasharray: 1.85,0.8; stroke-dashoffset: 0; stroke: #000000; stroke-opacity: 0.15; stroke-width: 0.5"/>
     </g>
     <g id="line2d_12">
      <path d="M 244.911875 151.726562 
" style="fill: none; stroke: #333333; stroke-width: 1.5; stroke-linecap: round"/>
      <g>
       <use xlink:href="#m1060a5ead6" x="244.911875" y="151.726562" style="fill: #333333; stroke: #333333"/>
      </g>
     </g>
     <g id="text_6">
      <text style="font-size: 8px; font-family: 'Georgia'; text-anchor: middle; fill: #4d4d4d" x="244.911875" y="162.524063" transform="rotate(-0 244.911875 162.524063)">50</text>
     </g>
    </g>
    <g id="xtick_7"/>
    <g id="xtick_8"/>
    <g id="xtick_9"/>
    <g id="xtick_10"/>
    <g id="xtick_11"/>
   </g>
   <g id="matplotlib.axis_2">
    <g id="ytick_1">
     <g id="line2d_13">
      <path d="M 31.494375 151.726562 
L 244.911875 151.726562 
" clip-path="url(#p0de8a9daf5)" style="fill: none; stroke-dasharray: 1.85,0.8; stroke-dashoffset: 0; stroke: #000000; stroke-opacity: 0.15; stroke-width: 0.5"/>
     </g>
     <g id="line2d_14">
      <path d="M 31.494375 151.726562 
" style="fill: none; stroke: #333333; stroke-width: 1.5; stroke-linecap: round"/>
      <defs>
       <path id="m456a0bff4a" d="M 0 0 
L -2.75 0 
" style="stroke: #333333"/>
      </defs>
      <g>
       <use xlink:href="#m456a0bff4a" x="31.494375" y="151.726562" style="fill: #333333; stroke: #333333"/>
      </g>
     </g>
     <g id="text_7">
      <text style="font-size: 8px; font-family: 'Georgia'; text-anchor: end; fill: #4d4d4d" x="26.744375" y="154.750313" transform="rotate(-0 26.744375 154.750313)">0.0</text>
     </g>
    </g>
    <g id="ytick_2">
     <g id="line2d_15">
      <path d="M 31.494375 122.49 
L 244.911875 122.49 
" clip-path="url(#p0de8a9daf5)" style="fill: none; stroke-dasharray: 1.85,0.8; stroke-dashoffset: 0; stroke: #000000; stroke-opacity: 0.15; stroke-width: 0.5"/>
     </g>
     <g id="line2d_16">
      <path d="M 31.494375 122.49 
" style="fill: none; stroke: #333333; stroke-width: 1.5; stroke-linecap: round"/>
      <g>
       <use xlink:href="#m456a0bff4a" x="31.494375" y="122.49" style="fill: #333333; stroke: #333333"/>
      </g>
     </g>
     <g id="text_8">
      <text style="font-size: 8px; font-family: 'Georgia'; text-anchor: end; fill: #4d4d4d" x="26.744375" y="125.51375" transform="rotate(-0 26.744375 125.51375)">0.2</text>
     </g>
    </g>
    <g id="ytick_3">
     <g id="line2d_17">
      <path d="M 31.494375 93.253438 
L 244.911875 93.253438 
" clip-path="url(#p0de8a9daf5)" style="fill: none; stroke-dasharray: 1.85,0.8; stroke-dashoffset: 0; stroke: #000000; stroke-opacity: 0.15; stroke-width: 0.5"/>
     </g>
     <g id="line2d_18">
      <path d="M 31.494375 93.253438 
" style="fill: none; stroke: #333333; stroke-width: 1.5; stroke-linecap: round"/>
      <g>
       <use xlink:href="#m456a0bff4a" x="31.494375" y="93.253438" style="fill: #333333; stroke: #333333"/>
      </g>
     </g>
     <g id="text_9">
      <text style="font-size: 8px; font-family: 'Georgia'; text-anchor: end; fill: #4d4d4d" x="26.744375" y="96.277187" transform="rotate(-0 26.744375 96.277187)">0.4</text>
     </g>
    </g>
    <g id="ytick_4">
     <g id="line2d_19">
      <path d="M 31.494375 64.016875 
L 244.911875 64.016875 
" clip-path="url(#p0de8a9daf5)" style="fill: none; stroke-dasharray: 1.85,0.8; stroke-dashoffset: 0; stroke: #000000; stroke-opacity: 0.15; stroke-width: 0.5"/>
     </g>
     <g id="line2d_20">
      <path d="M 31.494375 64.016875 
" style="fill: none; stroke: #333333; stroke-width: 1.5; stroke-linecap: round"/>
      <g>
       <use xlink:href="#m456a0bff4a" x="31.494375" y="64.016875" style="fill: #333333; stroke: #333333"/>
      </g>
     </g>
     <g id="text_10">
      <text style="font-size: 8px; font-family: 'Georgia'; text-anchor: end; fill: #4d4d4d" x="26.744375" y="67.040625" transform="rotate(-0 26.744375 67.040625)">0.6</text>
     </g>
    </g>
    <g id="ytick_5">
     <g id="line2d_21">
      <path d="M 31.494375 34.780313 
L 244.911875 34.780313 
" clip-path="url(#p0de8a9daf5)" style="fill: none; stroke-dasharray: 1.85,0.8; stroke-dashoffset: 0; stroke: #000000; stroke-opacity: 0.15; stroke-width: 0.5"/>
     </g>
     <g id="line2d_22">
      <path d="M 31.494375 34.780313 
" style="fill: none; stroke: #333333; stroke-width: 1.5; stroke-linecap: round"/>
      <g>
       <use xlink:href="#m456a0bff4a" x="31.494375" y="34.780313" style="fill: #333333; stroke: #333333"/>
      </g>
     </g>
     <g id="text_11">
      <text style="font-size: 8px; font-family: 'Georgia'; text-anchor: end; fill: #4d4d4d" x="26.744375" y="37.804063" transform="rotate(-0 26.744375 37.804063)">0.8</text>
     </g>
    </g>
    <g id="ytick_6">
     <g id="line2d_23">
      <path d="M 31.494375 5.54375 
L 244.911875 5.54375 
" clip-path="url(#p0de8a9daf5)" style="fill: none; stroke-dasharray: 1.85,0.8; stroke-dashoffset: 0; stroke: #000000; stroke-opacity: 0.15; stroke-width: 0.5"/>
     </g>
     <g id="line2d_24">
      <path d="M 31.494375 5.54375 
" style="fill: none; stroke: #333333; stroke-width: 1.5; stroke-linecap: round"/>
      <g>
       <use xlink:href="#m456a0bff4a" x="31.494375" y="5.54375" style="fill: #333333; stroke: #333333"/>
      </g>
     </g>
     <g id="text_12">
      <text style="font-size: 8px; font-family: 'Georgia'; text-anchor: end; fill: #4d4d4d" x="26.744375" y="8.5675" transform="rotate(-0 26.744375 8.5675)">1.0</text>
     </g>
    </g>
    <g id="ytick_7"/>
    <g id="ytick_8"/>
    <g id="ytick_9"/>
    <g id="ytick_10"/>
    <g id="ytick_11"/>
   </g>
   <g id="LineCollection_1">
    <path d="M 159.544875 151.726562 
L 159.544875 5.54375 
" clip-path="url(#p0de8a9daf5)" style="fill: none; stroke-dasharray: 3.27904,1.417963; stroke-dashoffset: 0; stroke: #000000; stroke-width: 0.886227"/>
   </g>
   <g id="line2d_25">
    <path d="M 31.494375 54.622308 
L 33.62855 54.314526 
L 35.762725 53.395327 
L 37.8969 53.131989 
L 40.031075 52.688054 
L 42.16525 53.154919 
L 44.299425 53.77437 
L 46.4336 53.686345 
L 48.567775 53.818099 
L 50.70195 54.541588 
L 52.836125 54.758321 
L 54.9703 55.529179 
L 57.104475 55.102245 
L 59.23865 54.889041 
L 61.372825 54.046701 
L 63.507 53.07685 
L 65.641175 51.220682 
L 67.77535 50.465689 
L 69.909525 49.026025 
L 72.0437 46.564868 
L 74.177875 42.131544 
L 76.31205 29.384086 
L 78.446225 20.16749 
L 80.5804 17.355934 
L 82.714575 20.382849 
L 84.84875 28.025389 
L 86.982925 33.237145 
L 89.1171 37.845391 
L 91.251275 40.502843 
L 93.38545 42.925786 
L 95.519625 44.75131 
L 97.6538 45.728962 
L 99.787975 47.648967 
L 101.92215 48.036763 
L 104.056325 48.690774 
L 106.1905 48.857006 
L 108.324675 53.903797 
L 110.45885 53.476888 
L 112.593025 53.200242 
L 114.7272 52.328588 
L 116.861375 53.982981 
L 118.99555 52.257957 
L 121.129725 51.699369 
L 123.2639 51.617201 
L 125.398075 51.289586 
L 127.53225 51.711155 
L 129.666425 52.416045 
L 131.8006 52.182402 
L 133.934775 53.067346 
L 136.06895 52.742678 
L 138.203125 52.91086 
L 140.3373 53.831767 
L 142.471475 54.006984 
L 144.60565 55.006207 
L 146.739825 54.590585 
L 148.874 54.724229 
L 151.008175 54.511503 
L 153.14235 55.795093 
L 155.276525 56.437408 
L 157.4107 54.049817 
L 159.544875 54.244051 
L 161.67905 56.304442 
L 163.813225 55.135894 
L 165.9474 57.772421 
L 170.21575 55.459554 
L 172.349925 52.922788 
L 174.4841 52.607412 
L 176.618275 56.915692 
L 178.75245 57.958171 
L 180.886625 61.469767 
L 183.0208 61.78493 
L 185.154975 61.462508 
L 187.28915 60.456359 
L 189.423325 58.14951 
L 191.5575 60.899548 
L 193.691675 59.634697 
L 195.82585 61.185455 
L 197.960025 59.417494 
L 200.0942 56.943371 
L 202.228375 58.570383 
L 204.36255 56.253655 
L 206.496725 55.606522 
L 208.6309 57.368911 
L 210.765075 57.916732 
L 212.89925 58.130869 
L 215.033425 55.087131 
L 217.1676 56.197977 
L 219.301775 57.878687 
L 221.43595 55.853134 
L 223.570125 61.513881 
L 225.7043 60.065135 
L 227.838475 60.593765 
L 229.97265 58.519825 
L 232.106825 58.42109 
L 234.241 61.582138 
L 236.375175 60.535928 
L 238.50935 59.772223 
L 240.643525 60.901049 
L 242.7777 59.668566 
L 244.911875 55.985691 
L 244.911875 55.985691 
" clip-path="url(#p0de8a9daf5)" style="fill: none; stroke: #db5f57; stroke-width: 1.240718"/>
   </g>
   <g id="line2d_26">
    <path d="M 31.494375 58.77393 
L 33.62855 59.020913 
L 35.762725 57.611464 
L 37.8969 56.780676 
L 40.031075 55.48012 
L 42.16525 56.018245 
L 44.299425 56.02014 
L 46.4336 57.018626 
L 48.567775 57.459322 
L 50.70195 57.23037 
L 52.836125 57.342947 
L 54.9703 58.151613 
L 57.104475 59.306679 
L 59.23865 59.667509 
L 61.372825 58.975225 
L 65.641175 55.752441 
L 67.77535 54.524406 
L 69.909525 53.434738 
L 72.0437 49.152259 
L 74.177875 43.984726 
L 76.31205 28.672849 
L 78.446225 18.130456 
L 80.5804 15.11309 
L 82.714575 19.720338 
L 84.84875 28.986015 
L 86.982925 36.662077 
L 89.1171 40.933758 
L 91.251275 44.601018 
L 93.38545 47.306081 
L 95.519625 50.724173 
L 97.6538 52.0543 
L 99.787975 52.648695 
L 101.92215 53.749433 
L 104.056325 54.439317 
L 106.1905 54.639432 
L 108.324675 58.944802 
L 110.45885 56.669622 
L 112.593025 57.681079 
L 114.7272 56.105287 
L 116.861375 54.357033 
L 118.99555 53.207311 
L 121.129725 54.165557 
L 123.2639 55.473139 
L 125.398075 56.042987 
L 127.53225 54.770349 
L 129.666425 56.668596 
L 131.8006 54.488646 
L 133.934775 55.212837 
L 138.203125 60.593343 
L 140.3373 60.107829 
L 142.471475 60.144183 
L 144.60565 59.298978 
L 146.739825 60.2571 
L 148.874 57.485217 
L 151.008175 56.764416 
L 153.14235 56.811598 
L 155.276525 56.54615 
L 157.4107 55.367483 
L 159.544875 55.681566 
L 161.67905 57.570818 
L 163.813225 56.908835 
L 165.9474 57.689113 
L 168.081575 54.930536 
L 170.21575 58.654163 
L 172.349925 58.448481 
L 174.4841 59.210304 
L 176.618275 57.699456 
L 178.75245 58.713897 
L 180.886625 60.840211 
L 183.0208 61.234511 
L 185.154975 61.462713 
L 187.28915 60.961385 
L 189.423325 59.312874 
L 191.5575 59.140741 
L 193.691675 58.495101 
L 195.82585 56.257216 
L 197.960025 57.139203 
L 200.0942 54.187988 
L 202.228375 54.78902 
L 204.36255 58.11943 
L 206.496725 60.191257 
L 208.6309 61.110721 
L 210.765075 59.514309 
L 212.89925 64.409235 
L 215.033425 60.908545 
L 217.1676 58.120008 
L 219.301775 56.47595 
L 221.43595 60.04821 
L 223.570125 61.455938 
L 225.7043 66.367861 
L 229.97265 63.025421 
L 232.106825 62.674277 
L 234.241 61.295646 
L 236.375175 62.244614 
L 240.643525 65.086861 
L 242.7777 64.445707 
L 244.911875 62.593322 
L 244.911875 62.593322 
" clip-path="url(#p0de8a9daf5)" style="fill: none; stroke: #d3db57; stroke-width: 1.240718"/>
   </g>
   <g id="line2d_27">
    <path d="M 31.494375 71.505562 
L 33.62855 71.201025 
L 35.762725 71.122408 
L 37.8969 71.391144 
L 40.031075 71.15274 
L 42.16525 70.507531 
L 44.299425 70.796335 
L 46.4336 70.673443 
L 48.567775 70.838378 
L 50.70195 70.188859 
L 52.836125 70.835761 
L 54.9703 69.712084 
L 57.104475 70.367254 
L 59.23865 68.409674 
L 61.372825 68.272663 
L 63.507 67.244716 
L 65.641175 65.858135 
L 67.77535 64.701598 
L 69.909525 63.052037 
L 72.0437 59.980422 
L 74.177875 54.523379 
L 76.31205 37.983453 
L 78.446225 27.800338 
L 80.5804 23.085078 
L 82.714575 26.124296 
L 84.84875 36.165208 
L 86.982925 44.895528 
L 89.1171 50.076972 
L 91.251275 52.789952 
L 93.38545 56.412243 
L 95.519625 58.563749 
L 97.6538 59.354407 
L 99.787975 60.48268 
L 101.92215 62.060261 
L 104.056325 62.614962 
L 106.1905 64.407491 
L 108.324675 67.800379 
L 110.45885 66.100089 
L 114.7272 64.858968 
L 116.861375 65.995338 
L 118.99555 64.986972 
L 121.129725 64.584948 
L 123.2639 64.673352 
L 125.398075 64.033233 
L 127.53225 64.606205 
L 129.666425 63.228392 
L 131.8006 63.223282 
L 133.934775 64.071102 
L 136.06895 63.997506 
L 138.203125 64.993368 
L 140.3373 62.268854 
L 142.471475 65.112932 
L 144.60565 65.490876 
L 146.739825 62.828489 
L 148.874 64.339841 
L 151.008175 64.768273 
L 153.14235 64.28416 
L 157.4107 65.579276 
L 159.544875 65.585159 
L 161.67905 65.947821 
L 163.813225 63.285745 
L 165.9474 65.380533 
L 168.081575 65.972194 
L 170.21575 66.253716 
L 172.349925 64.921146 
L 174.4841 64.486507 
L 176.618275 63.523517 
L 178.75245 65.17275 
L 180.886625 65.756426 
L 183.0208 66.816502 
L 187.28915 64.183673 
L 189.423325 66.189069 
L 191.5575 67.82226 
L 193.691675 66.55008 
L 195.82585 64.911926 
L 197.960025 68.217633 
L 200.0942 67.841851 
L 202.228375 66.918808 
L 204.36255 65.578117 
L 206.496725 64.979554 
L 208.6309 65.218249 
L 210.765075 66.628385 
L 212.89925 70.147331 
L 215.033425 68.358124 
L 219.301775 66.2937 
L 221.43595 65.896508 
L 223.570125 66.284218 
L 225.7043 64.037409 
L 227.838475 62.726583 
L 229.97265 64.477713 
L 232.106825 66.939278 
L 234.241 65.467878 
L 236.375175 67.590576 
L 238.50935 68.186663 
L 240.643525 67.86767 
L 242.7777 68.532088 
L 244.911875 70.981708 
L 244.911875 70.981708 
" clip-path="url(#p0de8a9daf5)" style="fill: none; stroke: #57db5f; stroke-width: 1.240718"/>
   </g>
   <g id="line2d_28">
    <path d="M 31.494375 58.193319 
L 33.62855 58.076722 
L 35.762725 57.269998 
L 40.031075 56.278291 
L 42.16525 57.901817 
L 44.299425 57.854774 
L 46.4336 57.531464 
L 48.567775 56.805046 
L 50.70195 58.349539 
L 52.836125 59.191186 
L 54.9703 59.664706 
L 57.104475 59.225722 
L 59.23865 60.511398 
L 61.372825 58.181006 
L 63.507 57.160663 
L 65.641175 55.458853 
L 69.909525 52.724792 
L 72.0437 50.562803 
L 74.177875 43.394581 
L 76.31205 30.016102 
L 78.446225 19.637925 
L 80.5804 16.315508 
L 82.714575 20.948776 
L 84.84875 29.288198 
L 86.982925 36.31769 
L 89.1171 41.789263 
L 91.251275 44.514433 
L 93.38545 47.653274 
L 95.519625 49.386283 
L 97.6538 50.824599 
L 99.787975 52.026641 
L 101.92215 52.54817 
L 104.056325 52.874477 
L 106.1905 54.602254 
L 108.324675 59.506361 
L 110.45885 57.90109 
L 112.593025 57.981723 
L 114.7272 57.274378 
L 116.861375 55.194146 
L 118.99555 55.866149 
L 121.129725 55.699247 
L 123.2639 55.873069 
L 125.398075 56.746388 
L 127.53225 57.863834 
L 129.666425 58.625687 
L 131.8006 58.528088 
L 133.934775 59.003242 
L 136.06895 54.749267 
L 138.203125 55.563002 
L 140.3373 55.482663 
L 142.471475 54.605416 
L 144.60565 57.847828 
L 146.739825 58.691383 
L 148.874 58.163518 
L 151.008175 59.187354 
L 153.14235 61.789065 
L 155.276525 60.989201 
L 157.4107 58.699245 
L 159.544875 59.559251 
L 161.67905 59.434325 
L 163.813225 60.451779 
L 165.9474 60.183287 
L 168.081575 61.772266 
L 170.21575 59.072418 
L 172.349925 58.371156 
L 174.4841 56.673715 
L 176.618275 60.7431 
L 178.75245 58.237198 
L 180.886625 58.437727 
L 183.0208 56.789688 
L 185.154975 56.822159 
L 187.28915 57.49077 
L 189.423325 61.237155 
L 191.5575 57.834177 
L 193.691675 58.819834 
L 195.82585 57.152178 
L 197.960025 58.386672 
L 200.0942 59.472725 
L 202.228375 65.612635 
L 204.36255 64.332013 
L 206.496725 64.740247 
L 208.6309 64.424892 
L 210.765075 64.908219 
L 212.89925 60.500965 
L 215.033425 59.791277 
L 217.1676 61.4826 
L 219.301775 61.533203 
L 221.43595 64.560837 
L 223.570125 65.260651 
L 225.7043 68.299907 
L 227.838475 65.367074 
L 229.97265 63.987955 
L 232.106825 63.633111 
L 234.241 67.31188 
L 236.375175 65.638389 
L 240.643525 62.027564 
L 244.911875 61.376787 
L 244.911875 61.376787 
" clip-path="url(#p0de8a9daf5)" style="fill: none; stroke: #57d3db; stroke-width: 1.240718"/>
   </g>
   <g id="line2d_29">
    <path d="M 31.494375 58.629375 
L 33.62855 57.826632 
L 35.762725 57.934367 
L 37.8969 57.709727 
L 40.031075 58.431938 
L 42.16525 58.691693 
L 44.299425 58.130644 
L 46.4336 59.820065 
L 48.567775 59.467332 
L 50.70195 59.728899 
L 59.23865 59.389153 
L 61.372825 58.467428 
L 63.507 56.752959 
L 65.641175 56.458689 
L 67.77535 55.700603 
L 69.909525 54.191512 
L 72.0437 51.613695 
L 74.177875 46.562854 
L 76.31205 32.412947 
L 78.446225 21.548247 
L 80.5804 17.424989 
L 82.714575 22.164559 
L 84.84875 30.874241 
L 86.982925 37.527327 
L 89.1171 42.406167 
L 91.251275 45.280836 
L 93.38545 47.321759 
L 95.519625 48.97883 
L 99.787975 51.34293 
L 101.92215 53.312255 
L 104.056325 54.491042 
L 106.1905 54.949551 
L 108.324675 59.355946 
L 110.45885 57.342992 
L 112.593025 55.960793 
L 114.7272 56.633656 
L 116.861375 55.582561 
L 118.99555 55.747759 
L 121.129725 55.426333 
L 123.2639 56.647038 
L 125.398075 56.297321 
L 127.53225 57.252839 
L 129.666425 55.12701 
L 131.8006 55.595589 
L 133.934775 54.853239 
L 136.06895 56.002596 
L 138.203125 56.30676 
L 140.3373 58.335824 
L 142.471475 58.390464 
L 144.60565 57.216937 
L 146.739825 58.201955 
L 148.874 57.535912 
L 151.008175 56.551355 
L 153.14235 58.250734 
L 155.276525 56.979592 
L 157.4107 57.504283 
L 159.544875 58.568333 
L 161.67905 55.143442 
L 163.813225 55.338424 
L 165.9474 58.631815 
L 168.081575 58.990842 
L 170.21575 58.007564 
L 172.349925 57.80626 
L 174.4841 58.644342 
L 176.618275 55.508163 
L 178.75245 56.019283 
L 180.886625 56.316241 
L 183.0208 57.20435 
L 185.154975 57.872564 
L 187.28915 60.587103 
L 189.423325 59.83077 
L 191.5575 59.299845 
L 193.691675 59.333764 
L 195.82585 60.950827 
L 197.960025 59.191044 
L 200.0942 58.537061 
L 202.228375 59.887126 
L 204.36255 58.714909 
L 206.496725 59.913198 
L 208.6309 57.681188 
L 210.765075 59.301138 
L 212.89925 58.916834 
L 215.033425 59.330949 
L 217.1676 59.993818 
L 219.301775 59.589775 
L 221.43595 60.1483 
L 223.570125 59.849871 
L 225.7043 61.737699 
L 227.838475 58.770632 
L 232.106825 59.911848 
L 234.241 58.875618 
L 236.375175 59.567756 
L 238.50935 60.92638 
L 240.643525 57.611694 
L 242.7777 60.453198 
L 244.911875 57.635724 
L 244.911875 57.635724 
" clip-path="url(#p0de8a9daf5)" style="fill: none; stroke: #5f57db; stroke-width: 1.240718"/>
   </g>
   <g id="line2d_30">
    <path d="M 31.494375 58.621172 
L 33.62855 59.165738 
L 35.762725 59.770116 
L 37.8969 59.04149 
L 40.031075 58.391963 
L 42.16525 58.909885 
L 44.299425 58.136817 
L 46.4336 58.728589 
L 48.567775 59.113907 
L 50.70195 58.766881 
L 52.836125 58.841515 
L 54.9703 58.184969 
L 57.104475 59.19794 
L 59.23865 57.96532 
L 61.372825 59.19458 
L 63.507 58.552479 
L 65.641175 56.579232 
L 67.77535 54.531882 
L 69.909525 53.019696 
L 72.0437 50.135128 
L 74.177875 45.484461 
L 76.31205 31.126254 
L 78.446225 21.404136 
L 80.5804 18.11213 
L 82.714575 20.651618 
L 84.84875 29.630774 
L 86.982925 35.643286 
L 89.1171 42.148764 
L 91.251275 45.424493 
L 93.38545 48.453693 
L 95.519625 50.148021 
L 97.6538 52.041977 
L 99.787975 53.894264 
L 101.92215 55.011825 
L 104.056325 56.044833 
L 106.1905 56.304611 
L 108.324675 60.678924 
L 110.45885 60.8637 
L 112.593025 59.045473 
L 114.7272 59.633474 
L 116.861375 59.004742 
L 118.99555 58.958016 
L 121.129725 57.507621 
L 123.2639 57.57554 
L 125.398075 58.768826 
L 127.53225 57.247149 
L 129.666425 57.183372 
L 131.8006 55.08314 
L 133.934775 52.657526 
L 136.06895 57.823087 
L 138.203125 59.554632 
L 140.3373 56.43164 
L 142.471475 57.071128 
L 144.60565 59.869807 
L 146.739825 62.381842 
L 148.874 61.698322 
L 151.008175 62.491127 
L 153.14235 60.971942 
L 155.276525 59.989779 
L 157.4107 61.439025 
L 159.544875 59.487188 
L 161.67905 60.057025 
L 163.813225 58.113194 
L 165.9474 58.038388 
L 168.081575 54.824583 
L 170.21575 57.341452 
L 172.349925 55.679766 
L 174.4841 62.247873 
L 176.618275 59.828872 
L 178.75245 59.972888 
L 180.886625 62.944115 
L 183.0208 65.125843 
L 185.154975 65.559556 
L 187.28915 60.682662 
L 189.423325 62.110958 
L 191.5575 64.970598 
L 193.691675 64.296853 
L 195.82585 68.052863 
L 197.960025 69.406717 
L 200.0942 64.804257 
L 202.228375 66.070579 
L 204.36255 63.067873 
L 206.496725 65.905248 
L 208.6309 65.413656 
L 210.765075 65.342845 
L 212.89925 63.952704 
L 215.033425 66.682652 
L 217.1676 67.509479 
L 219.301775 69.231099 
L 221.43595 69.294412 
L 223.570125 66.315748 
L 225.7043 70.369529 
L 227.838475 67.916113 
L 229.97265 71.276268 
L 232.106825 73.700723 
L 234.241 72.536381 
L 236.375175 64.743239 
L 238.50935 62.262219 
L 240.643525 63.695989 
L 242.7777 61.000859 
L 244.911875 60.491885 
" clip-path="url(#p0de8a9daf5)" style="fill: none; stroke: #db57d3; stroke-width: 1.240718"/>
   </g>
  </g>
  <g id="patch_3">
   <path d="M 31.494375 151.726562 
L 244.911875 151.726562 
L 244.911875 5.54375 
L 31.494375 5.54375 
L 31.494375 151.726562 
z
" style="fill: none; stroke: #7f7f7f; stroke-linejoin: miter"/>
  </g>
  <g id="text_13">
   <text style="font-size: 11px; font-family: 'Georgia'; text-anchor: start" x="114.671719" y="175.094375" transform="rotate(-0 114.671719 175.094375)">Time [µs]</text>
  </g>
  <g id="text_14">
   <text style="font-size: 10px; font-family: 'Georgia'" transform="translate(10.079375 137.119531) rotate(-90)">Normalized intensity [0-1]</text>
  </g>
  <g id="patch_4">
   <path d="M 37.918875 115.709812 
L 45.918875 115.709812 
L 45.918875 107.709812 
L 37.918875 107.709812 
L 37.918875 115.709812 
z
" clip-path="url(#p3387dc072b)" style="fill: none; stroke: #cccccc; stroke-linejoin: miter"/>
  </g>
  <g id="line2d_31">
   <path d="M 36.918875 111.709812 
L 46.918875 111.709812 
" clip-path="url(#p3387dc072b)" style="fill: none; stroke: #db5f57; stroke-width: 1.240718"/>
  </g>
  <g id="text_15">
   <text style="font-size: 8px; font-family: 'Georgia'; text-anchor: middle" x="63.415125" y="113.866062" transform="rotate(-0 63.415125 113.866062)">*Control</text>
  </g>
  <g id="patch_5">
   <path d="M 37.918875 127.709812 
L 45.918875 127.709812 
L 45.918875 119.709812 
L 37.918875 119.709812 
L 37.918875 127.709812 
z
" clip-path="url(#pec54688c04)" style="fill: none; stroke: #cccccc; stroke-linejoin: miter"/>
  </g>
  <g id="line2d_32">
   <path d="M 36.918875 123.709812 
L 46.918875 123.709812 
" clip-path="url(#pec54688c04)" style="fill: none; stroke: #d3db57; stroke-width: 1.240718"/>
  </g>
  <g id="text_16">
   <text style="font-size: 8px; font-family: 'Georgia'; text-anchor: middle" x="64.128875" y="125.866062" transform="rotate(-0 64.128875 125.866062)">B. cereus</text>
  </g>
  <g id="patch_6">
   <path d="M 37.918875 139.709812 
L 45.918875 139.709812 
L 45.918875 131.709812 
L 37.918875 131.709812 
L 37.918875 139.709812 
z
" clip-path="url(#p4f877612ad)" style="fill: none; stroke: #cccccc; stroke-linejoin: miter"/>
  </g>
  <g id="line2d_33">
   <path d="M 36.918875 135.709812 
L 46.918875 135.709812 
" clip-path="url(#p4f877612ad)" style="fill: none; stroke: #57db5f; stroke-width: 1.240718"/>
  </g>
  <g id="text_17">
   <text style="font-size: 8px; font-family: 'Georgia'; text-anchor: middle" x="76.507" y="137.866062" transform="rotate(-0 76.507 137.866062)">B. endophyticus</text>
  </g>
  <g id="patch_7">
   <path d="M 111.895125 115.709812 
L 119.895125 115.709812 
L 119.895125 107.709812 
L 111.895125 107.709812 
L 111.895125 115.709812 
z
" clip-path="url(#pab4f1572bd)" style="fill: none; stroke: #cccccc; stroke-linejoin: miter"/>
  </g>
  <g id="line2d_34">
   <path d="M 110.895125 111.709812 
L 120.895125 111.709812 
" clip-path="url(#pab4f1572bd)" style="fill: none; stroke: #57d3db; stroke-width: 1.240718"/>
  </g>
  <g id="text_18">
   <text style="font-size: 8px; font-family: 'Georgia'; text-anchor: middle" x="139.708875" y="113.866062" transform="rotate(-0 139.708875 113.866062)">K. salsicia</text>
  </g>
  <g id="patch_8">
   <path d="M 111.895125 127.709812 
L 119.895125 127.709812 
L 119.895125 119.709812 
L 111.895125 119.709812 
L 111.895125 127.709812 
z
" clip-path="url(#p49382e30c7)" style="fill: none; stroke: #cccccc; stroke-linejoin: miter"/>
  </g>
  <g id="line2d_35">
   <path d="M 110.895125 123.709812 
L 120.895125 123.709812 
" clip-path="url(#p49382e30c7)" style="fill: none; stroke: #5f57db; stroke-width: 1.240718"/>
  </g>
  <g id="text_19">
   <text style="font-size: 8px; font-family: 'Georgia'; text-anchor: middle" x="138.63575" y="125.866062" transform="rotate(-0 138.63575 125.866062)">M. luteus</text>
  </g>
  <g id="patch_9">
   <path d="M 111.895125 139.709812 
L 119.895125 139.709812 
L 119.895125 131.709812 
L 111.895125 131.709812 
L 111.895125 139.709812 
z
" clip-path="url(#p50b9596de6)" style="fill: none; stroke: #cccccc; stroke-linejoin: miter"/>
  </g>
  <g id="line2d_36">
   <path d="M 110.895125 135.709812 
L 120.895125 135.709812 
" clip-path="url(#p50b9596de6)" style="fill: none; stroke: #db57d3; stroke-width: 1.240718"/>
  </g>
  <g id="text_20">
   <text style="font-size: 8px; font-family: 'Georgia'; text-anchor: middle" x="140.97075" y="137.866062" transform="rotate(-0 140.97075 137.866062)">S. huminis</text>
  </g>
 </g>
 <defs>
  <clipPath id="p0de8a9daf5">
   <rect x="31.494375" y="5.54375" width="213.4175" height="146.182812"/>
  </clipPath>
  <clipPath id="p3387dc072b">
   <path d="M 36.918875 116.709812 
L 36.918875 106.709812 
L 46.918875 106.709812 
L 46.918875 116.709812 
"/>
  </clipPath>
  <clipPath id="pec54688c04">
   <path d="M 36.918875 128.709812 
L 36.918875 118.709812 
L 46.918875 118.709812 
L 46.918875 128.709812 
"/>
  </clipPath>
  <clipPath id="p4f877612ad">
   <path d="M 36.918875 140.709812 
L 36.918875 130.709812 
L 46.918875 130.709812 
L 46.918875 140.709812 
"/>
  </clipPath>
  <clipPath id="pab4f1572bd">
   <path d="M 110.895125 116.709812 
L 110.895125 106.709812 
L 120.895125 106.709812 
L 120.895125 116.709812 
"/>
  </clipPath>
  <clipPath id="p49382e30c7">
   <path d="M 110.895125 128.709812 
L 110.895125 118.709812 
L 120.895125 118.709812 
L 120.895125 128.709812 
"/>
  </clipPath>
  <clipPath id="p50b9596de6">
   <path d="M 110.895125 140.709812 
L 110.895125 130.709812 
L 120.895125 130.709812 
L 120.895125 140.709812 
"/>
  </clipPath>
 </defs>
</svg>
